<svg width="851" height="851" viewBox="0 0 851 851" fill="none" xmlns="http://www.w3.org/2000/svg">
<g clip-path="url(#clip0_2_10)">
<path d="M53.58 681.5H686.31V304.66H53.58V681.5ZM62.06 313.11H677.83V360.29H62.06V313.11ZM62.06 368.77H677.83V673.05H62.06V368.77Z" fill="black"/>
<path d="M90.68 319.85C87.6164 319.85 84.6215 320.758 82.0742 322.461C79.5269 324.163 77.5415 326.582 76.3691 329.412C75.1967 332.243 74.89 335.357 75.4876 338.362C76.0853 341.367 77.5606 344.127 79.7269 346.293C81.8932 348.459 84.6533 349.935 87.6581 350.532C90.6628 351.13 93.7774 350.823 96.6078 349.651C99.4382 348.478 101.857 346.493 103.559 343.946C105.262 341.398 106.17 338.404 106.17 335.34C106.165 331.233 104.531 327.297 101.627 324.393C98.7235 321.489 94.7866 319.855 90.68 319.85ZM90.68 342.35C89.2955 342.35 87.9422 341.939 86.791 341.17C85.6399 340.401 84.7427 339.308 84.2129 338.029C83.683 336.75 83.5444 335.342 83.8145 333.984C84.0846 332.627 84.7513 331.379 85.7303 330.4C86.7092 329.421 87.9565 328.755 89.3144 328.484C90.6722 328.214 92.0797 328.353 93.3588 328.883C94.6379 329.413 95.7311 330.31 96.5003 331.461C97.2695 332.612 97.68 333.966 97.68 335.35C97.68 337.207 96.9425 338.987 95.6298 340.3C94.317 341.612 92.5365 342.35 90.68 342.35Z" fill="black"/>
<path d="M127 319.85C123.936 319.848 120.94 320.755 118.392 322.456C115.843 324.157 113.856 326.575 112.682 329.405C111.508 332.236 111.2 335.35 111.796 338.356C112.393 341.361 113.867 344.122 116.033 346.29C118.199 348.457 120.959 349.933 123.964 350.532C126.969 351.13 130.084 350.824 132.915 349.652C135.746 348.48 138.166 346.494 139.869 343.947C141.571 341.399 142.48 338.404 142.48 335.34C142.475 331.235 140.842 327.3 137.941 324.396C135.039 321.493 131.105 319.858 127 319.85ZM127 342.35C125.616 342.35 124.262 341.939 123.111 341.17C121.96 340.401 121.063 339.308 120.533 338.029C120.003 336.75 119.864 335.342 120.135 333.984C120.405 332.627 121.071 331.379 122.05 330.4C123.029 329.421 124.277 328.755 125.634 328.484C126.992 328.214 128.4 328.353 129.679 328.883C130.958 329.413 132.051 330.31 132.82 331.461C133.589 332.612 134 333.966 134 335.35C134 337.207 133.263 338.987 131.95 340.3C130.637 341.613 128.857 342.35 127 342.35Z" fill="black"/>
<path d="M824.67 293.5L850.39 283.08L850.19 280.02C849.564 270.811 848.345 261.652 846.54 252.6L845.94 249.6L818.5 245.94L809 222.41L826 200.5L824.46 198C819.622 190.124 814.062 182.715 807.85 175.87L805.85 173.68L780.28 184.02L760.28 168.5L763.9 141.41L759.9 138.75L759.33 138.44C751.59 134.86 743.59 131.17 735.51 128.68L732.71 127.82L715.71 149.69L690.71 146.19L680.33 119.93L677.25 120.14C668.25 120.73 659.05 121.35 649.82 123.14L646.82 123.73L643.17 151.2L619 161.32L597.13 144.32L594.63 145.87C586.768 150.718 579.373 156.285 572.54 162.5L570.35 164.5L578.15 183.77H577.59V193.46H578.07L565.17 210.1L537.81 206.45L536.42 209.03C532.021 217.285 528.341 225.904 525.42 234.79L524.42 237.63L546.36 254.69L545.23 262.74H298.23V259.92H288.54V262.74H69.92C58.7804 262.766 48.1053 267.207 40.2331 275.088C32.3608 282.97 27.9332 293.65 27.92 304.79V699.95H0V729.58C0 741.7 18.08 750.83 42.05 750.83H701.42C725.42 750.83 743.47 741.7 743.47 729.58V699.95H715.59V614.95H718.4V605.26H715.59V449.26C716.4 449.07 717.22 448.88 718.04 448.66L720.77 447.93L724.41 420.7L747.93 411.19L769.82 428.19L772.32 426.65C780.2 421.813 787.612 416.253 794.46 410.04L796.64 408.04L786.3 382.5L801.82 362.5L829.18 366.14L830.57 363.57C834.969 355.315 838.649 346.696 841.57 337.81L842.57 334.97L820.68 317.97L824.67 293.5ZM36.35 304.73C36.3606 295.83 39.9008 287.297 46.1941 281.004C52.4874 274.711 61.0199 271.171 69.92 271.16H673.53C682.434 271.16 690.974 274.697 697.271 280.992C703.568 287.287 707.107 295.826 707.11 304.73V699.95H36.35V304.73ZM735 708.43V729.58C735 734.91 722.23 742.35 701.43 742.35H42.05C21.25 742.35 8.48 734.91 8.48 729.58V708.43H735ZM703.27 274.99C699.373 271.073 694.738 267.968 689.633 265.855C684.528 263.742 679.055 262.663 673.53 262.68H598.93C602.961 248.135 610.651 234.865 621.266 224.135C631.881 213.405 645.068 205.574 659.569 201.387C674.07 197.2 689.402 196.798 704.103 200.218C718.804 203.638 732.383 210.767 743.547 220.925C754.711 231.083 763.086 243.931 767.875 258.244C772.664 272.558 773.706 287.86 770.903 302.69C768.1 317.521 761.544 331.387 751.861 342.965C742.178 354.543 729.691 363.448 715.59 368.83V304.73C715.603 299.205 714.521 293.732 712.406 288.627C710.292 283.523 707.186 278.888 703.27 274.99ZM832.6 337.9C830.316 344.407 827.6 350.755 824.47 356.9L798.11 353.39L776.61 381.14L786.55 405.71C781.451 410.139 776.041 414.197 770.36 417.85L749.27 401.44L716.65 414.64L715.59 422.64V377.84C731.456 372.383 745.633 362.897 756.73 350.312C767.827 337.727 775.463 322.475 778.891 306.05C782.319 289.625 781.421 272.592 776.285 256.619C771.148 240.646 761.95 226.281 749.591 214.933C737.231 203.585 722.136 195.643 705.784 191.885C689.431 188.127 672.383 188.682 656.31 193.496C640.236 198.31 625.69 207.218 614.095 219.346C602.501 231.474 594.256 246.407 590.17 262.68H553.8L555.44 250.95L534.44 234.58C536.721 228.071 539.437 221.724 542.57 215.58L568.92 219.1L590.43 191.35L580.48 166.78C585.578 162.35 590.989 158.293 596.67 154.64L617.78 171.06L651 157.22L654.49 130.97C661.209 129.91 667.978 129.189 674.77 128.81L684.69 153.91L719.43 158.78L735.84 137.69C742.16 139.87 748.58 142.79 754.84 145.69L751.3 172.23L779 193.72L803.58 183.78C808.004 188.883 812.061 194.293 815.72 199.97L799.32 221.06L812.5 253.68L838.8 257.19C840.038 263.911 840.94 270.689 841.5 277.5L817.07 287.39L811.51 321.5L832.6 337.9Z" fill="black"/>
<path d="M298.25 234.16H288.56V247.01H298.25V234.16Z" fill="black"/>
<path d="M298.25 208.46H288.56V221.31H298.25V208.46Z" fill="black"/>
<path d="M298.25 193.4H300.46V183.71H288.56V195.61H298.25V193.4Z" fill="black"/>
<path d="M504.67 183.71H490.08V193.4H504.67V183.71Z" fill="black"/>
<path d="M446.32 183.71H431.73V193.4H446.32V183.71Z" fill="black"/>
<path d="M563.01 183.71H548.42V193.4H563.01V183.71Z" fill="black"/>
<path d="M533.84 183.71H519.25V193.4H533.84V183.71Z" fill="black"/>
<path d="M475.49 183.71H460.9V193.4H475.49V183.71Z" fill="black"/>
<path d="M417.15 183.71H402.56V193.4H417.15V183.71Z" fill="black"/>
<path d="M358.81 183.71H344.22V193.4H358.81V183.71Z" fill="black"/>
<path d="M329.64 183.71H315.05V193.4H329.64V183.71Z" fill="black"/>
<path d="M387.98 183.71H373.39V193.4H387.98V183.71Z" fill="black"/>
<path d="M812.8 518.15H803.11V532.3H812.8V518.15Z" fill="black"/>
<path d="M812.8 489.86H803.11V504.01H812.8V489.86Z" fill="black"/>
<path d="M812.8 461.57H803.11V475.72H812.8V461.57Z" fill="black"/>
<path d="M812.8 404.98H803.11V419.13H812.8V404.98Z" fill="black"/>
<path d="M812.8 376.69H803.11V390.84H812.8V376.69Z" fill="black"/>
<path d="M812.8 433.27H803.11V447.42H812.8V433.27Z" fill="black"/>
<path d="M812.8 546.44H803.11V560.59H812.8V546.44Z" fill="black"/>
<path d="M812.8 574.73H803.11V588.88H812.8V574.73Z" fill="black"/>
<path d="M803.11 605.23H800.9V614.92H812.8V603.02H803.11V605.23Z" fill="black"/>
<path d="M784.4 605.23H767.9V614.92H784.4V605.23Z" fill="black"/>
<path d="M751.4 605.23H734.9V614.92H751.4V605.23Z" fill="black"/>
<path d="M224.624 552.672C225.712 552.672 226.672 552.512 227.504 552.192C228.4 551.872 229.648 551.712 231.248 551.712C232.848 551.712 233.648 552.16 233.648 553.056C233.648 554.656 232.016 555.872 228.752 556.704C221.776 558.496 216.144 558.336 211.856 556.224C209.424 555.072 207.312 553.472 205.52 551.424C201.808 547.2 199.952 542.016 199.952 535.872C199.952 534.4 200.304 532.192 201.008 529.248C201.776 526.304 202.32 524.096 202.64 522.624C203.024 521.088 203.216 519.52 203.216 517.92C203.216 516.256 202.704 514.496 201.68 512.64C200.72 510.72 199.632 508.928 198.416 507.264C197.264 505.536 196.176 503.968 195.152 502.56C194.192 501.088 193.712 499.904 193.712 499.008C193.712 498.112 194.192 497.472 195.152 497.088C198.096 495.36 200.592 492.864 202.64 489.6C204.688 486.336 205.712 483.68 205.712 481.632C205.648 479.072 205.104 475.264 204.08 470.208C203.056 465.088 202.544 461.344 202.544 458.976C202.544 454.56 204.176 451.392 207.44 449.472C210.704 447.488 214.992 446.496 220.304 446.496C225.68 446.496 230.608 447.104 235.088 448.32C236.24 448.64 236.848 448.992 236.912 449.376C236.912 450.464 235.792 451.488 233.552 452.448C231.376 453.408 229.552 453.888 228.08 453.888C226.544 453.888 224.624 453.664 222.32 453.216C220.08 452.704 217.904 452.384 215.792 452.256C215.6 452.96 215.504 453.92 215.504 455.136C215.504 456.864 216.016 460.128 217.04 464.928C218.064 469.728 218.576 473.184 218.576 475.296C218.576 479.264 217.232 483.424 214.544 487.776C211.856 492.064 208.752 495.648 205.232 498.528C212.72 504.8 216.464 510.368 216.464 515.232C216.464 516.704 216.048 519.008 215.216 522.144C214.448 525.28 213.872 527.648 213.488 529.248C213.104 530.848 212.912 532.448 212.912 534.048C212.912 538.336 213.904 542.336 215.888 546.048C218.192 550.464 221.104 552.672 224.624 552.672ZM351.799 505.344C352.887 505.344 353.431 506.816 353.431 509.76C353.431 511.36 352.759 513.312 351.415 515.616C350.071 517.856 348.311 519.936 346.135 521.856C344.023 523.712 341.655 525.248 339.031 526.464C336.407 527.68 333.847 528.288 331.351 528.288C327.575 528.288 324.951 527.36 323.479 525.504C322.071 523.584 321.367 520.8 321.367 517.152C321.367 513.44 322.807 507.104 325.687 498.144C316.855 497.76 310.423 497.568 306.391 497.568H305.047C303.895 504.672 303.319 512.128 303.319 519.936C303.319 523.392 302.007 525.76 299.383 527.04C298.167 527.616 296.983 528.16 295.831 528.672C294.743 529.184 293.559 529.44 292.279 529.44C289.079 529.44 287.479 526.56 287.479 520.8C287.479 515.04 288.791 507.648 291.415 498.624C288.599 498.944 286.103 499.264 283.927 499.584C281.815 499.904 280.151 500.064 278.935 500.064C277.719 500.064 277.111 499.744 277.111 499.104C277.111 497.184 278.679 495.232 281.815 493.248C285.015 491.264 289.335 489.76 294.775 488.736C300.791 473.44 308.151 463.232 316.855 458.112C320.055 456.192 323.447 455.232 327.031 455.232C333.431 455.296 338.039 457.024 340.855 460.416C343.735 463.808 345.175 468.32 345.175 473.952C345.239 479.52 343.543 486.784 340.087 495.744C338.807 499.2 337.623 502.336 336.535 505.152C335.447 507.968 334.903 510.24 334.903 511.968C334.903 513.696 335.031 515.008 335.287 515.904C335.543 516.8 336.151 517.248 337.111 517.248C338.839 517.248 342.903 513.92 349.303 507.264C350.455 505.984 351.287 505.344 351.799 505.344ZM331.351 476.736C331.351 471.168 329.271 468.384 325.111 468.384C320.887 468.384 317.239 470.176 314.167 473.76C311.159 477.28 308.823 482.016 307.159 487.968L328.951 488.256C330.551 483.136 331.351 479.296 331.351 476.736ZM373.484 523.776C373.484 527.552 369.804 529.44 362.444 529.44C360.844 529.44 359.884 528.64 359.564 527.04C359.308 525.376 359.18 523.072 359.18 520.128C359.18 513.92 360.428 506.24 362.924 497.088C367.084 481.984 371.532 473.088 376.268 470.4C376.908 470.016 377.612 469.824 378.38 469.824C379.148 469.824 379.532 471.072 379.532 473.568C379.532 476.064 379.404 478.272 379.148 480.192C378.636 484.032 377.708 488.992 376.364 495.072C375.084 501.152 374.444 504.736 374.444 505.824L373.484 523.776ZM380.012 497.952C380.012 497.12 380.46 496.576 381.356 496.32C382.316 496.064 383.5 495.84 384.908 495.648C386.316 495.392 387.852 495.04 389.516 494.592C391.18 494.144 392.716 493.312 394.124 492.096C397.388 489.28 399.02 484.576 399.02 477.984C399.02 473.76 397.58 470.528 394.7 468.288C391.884 466.048 387.788 464.928 382.412 464.928C377.1 464.928 372.108 466.048 367.436 468.288C365.708 469.12 364.14 469.888 362.732 470.592C361.388 471.296 360.14 471.648 358.988 471.648C357.836 471.648 357.26 471.296 357.26 470.592C357.26 469.504 358.316 467.712 360.428 465.216C362.54 462.912 365.868 460.768 370.412 458.784C375.02 456.8 379.852 455.808 384.908 455.808C394.444 455.744 401.868 457.984 407.18 462.528C411.788 466.496 414.092 471.648 414.092 477.984C414.092 484.256 411.82 489.888 407.276 494.88C402.732 499.808 397.036 502.272 390.188 502.272C383.404 502.272 380.012 500.832 380.012 497.952ZM430.825 525.792C430.825 527.584 429.545 528.48 426.985 528.48C422.953 528.48 420.201 527.712 418.729 526.176C417.257 524.576 416.521 521.92 416.521 518.208C416.585 512.448 418.153 503.232 421.225 490.56C424.361 477.888 427.305 468.48 430.057 462.336C430.761 460.736 431.753 459.232 433.033 457.824C434.313 456.352 436.009 455.616 438.121 455.616C439.017 455.616 439.753 456.16 440.329 457.248C440.969 458.336 441.289 459.584 441.289 460.992C441.289 462.4 441.033 464.512 440.521 467.328C440.009 470.08 439.369 473.248 438.601 476.832C437.833 480.416 436.969 484.288 436.009 488.448C432.553 504.256 430.825 516.704 430.825 525.792ZM491.355 550.656C499.931 550.656 504.219 548.992 504.219 545.664C504.219 543.424 503.867 541.28 503.163 539.232C502.459 537.184 501.947 535.52 501.627 534.24C501.307 533.024 501.147 531.52 501.147 529.728C501.147 526.144 502.523 521.888 505.275 516.96C508.027 511.968 511.099 508 514.491 505.056C507.003 498.4 503.259 492.8 503.259 488.256C503.259 486.848 503.643 484.672 504.411 481.728C505.243 478.784 505.851 476.576 506.235 475.104C506.619 473.632 506.811 472.096 506.811 470.496C506.811 468.896 506.555 466.976 506.043 464.736C505.595 462.496 504.859 460.416 503.835 458.496C501.531 454.08 498.619 451.872 495.099 451.872C494.011 451.872 493.019 452.032 492.123 452.352C491.291 452.672 490.075 452.832 488.475 452.832C486.875 452.832 486.075 452.384 486.075 451.488C486.075 449.888 487.707 448.672 490.971 447.84C497.947 446.048 503.579 446.208 507.867 448.32C510.299 449.472 512.411 451.072 514.203 453.12C517.915 457.344 519.771 462.528 519.771 468.672C519.771 470.144 519.387 472.224 518.619 474.912C517.915 477.6 517.371 479.648 516.987 481.056C516.667 482.464 516.507 484 516.507 485.664C516.507 487.264 516.987 488.896 517.947 490.56C518.971 492.224 520.059 493.792 521.211 495.264C522.427 496.736 523.515 498.112 524.475 499.392C525.499 500.672 526.011 501.696 526.011 502.464C526.011 503.232 525.531 503.904 524.571 504.48C521.883 505.888 519.483 508.832 517.371 513.312C515.259 517.792 514.203 521.184 514.203 523.488C514.139 526.24 514.619 530.016 515.643 534.816C516.667 539.616 517.179 543.2 517.179 545.568C517.179 549.984 515.547 553.152 512.283 555.072C509.019 557.056 504.699 558.048 499.323 558.048C494.011 558.048 489.115 557.44 484.635 556.224C483.483 555.904 482.875 555.552 482.811 555.168C482.811 554.08 483.899 553.056 486.075 552.096C488.315 551.136 490.075 550.656 491.355 550.656Z" fill="black"/>
</g>
<defs>
<clipPath id="clip0_2_10">
<rect width="850.39" height="850.39" fill="white" transform="translate(0 0.5)"/>
</clipPath>
</defs>
</svg>
