<svg width="859" height="851" viewBox="0 0 859 851" fill="none" xmlns="http://www.w3.org/2000/svg">
<g clip-path="url(#clip0_2_42)" filter="url(#filter0_d_2_42)">
<path d="M57.58 681.5H690.31V304.66H57.58V681.5ZM66.06 673.02V368.8H681.83V673.05L66.06 673.02ZM681.83 313.14V360.32H66.06V313.14H681.83Z" fill="white"/>
<path d="M94.68 350.83C97.7436 350.83 100.738 349.922 103.286 348.219C105.833 346.517 107.818 344.098 108.991 341.268C110.163 338.437 110.47 335.323 109.872 332.318C109.275 329.313 107.799 326.553 105.633 324.387C103.467 322.221 100.707 320.745 97.702 320.148C94.6972 319.55 91.5827 319.857 88.7522 321.029C85.9218 322.202 83.5026 324.187 81.8005 326.734C80.0985 329.282 79.19 332.276 79.19 335.34C79.1953 339.447 80.829 343.383 83.7328 346.287C86.6365 349.191 90.5734 350.825 94.68 350.83ZM94.68 328.33C96.0645 328.33 97.4178 328.741 98.569 329.51C99.7201 330.279 100.617 331.372 101.147 332.651C101.677 333.93 101.816 335.338 101.545 336.696C101.275 338.053 100.609 339.301 99.6297 340.28C98.6508 341.259 97.4035 341.925 96.0456 342.196C94.6878 342.466 93.2803 342.327 92.0012 341.797C90.7221 341.267 89.6289 340.37 88.8597 339.219C88.0905 338.068 87.68 336.714 87.68 335.33C87.68 333.473 88.4175 331.693 89.7303 330.38C91.043 329.067 92.8235 328.33 94.68 328.33Z" fill="white"/>
<path d="M131 350.83C134.064 350.83 137.058 349.922 139.606 348.219C142.153 346.517 144.139 344.098 145.311 341.268C146.483 338.437 146.79 335.323 146.192 332.318C145.595 329.313 144.119 326.553 141.953 324.387C139.787 322.221 137.027 320.745 134.022 320.148C131.017 319.55 127.903 319.857 125.072 321.029C122.242 322.202 119.823 324.187 118.121 326.734C116.418 329.282 115.51 332.276 115.51 335.34C115.513 339.447 117.145 343.386 120.05 346.29C122.954 349.195 126.893 350.827 131 350.83ZM131 328.33C132.384 328.33 133.738 328.741 134.889 329.51C136.04 330.279 136.937 331.372 137.467 332.651C137.997 333.93 138.136 335.338 137.866 336.696C137.595 338.053 136.929 339.301 135.95 340.28C134.971 341.259 133.724 341.925 132.366 342.196C131.008 342.466 129.6 342.327 128.321 341.797C127.042 341.267 125.949 340.37 125.18 339.219C124.411 338.068 124 336.714 124 335.33C124 333.473 124.738 331.693 126.05 330.38C127.363 329.067 129.143 328.33 131 328.33Z" fill="white"/>
<path d="M828.67 293.5L854.39 283.08L854.19 280.02C853.564 270.811 852.345 261.652 850.54 252.6L849.94 249.6L822.5 245.94L813 222.41L830 200.5L828.46 198C823.622 190.124 818.062 182.715 811.85 175.87L809.85 173.68L784.28 184.02L764.28 168.5L767.9 141.41L763.9 138.75L763.33 138.44C755.59 134.86 747.59 131.17 739.51 128.68L736.71 127.82L719.71 149.69L694.71 146.19L684.33 119.93L681.25 120.14C672.25 120.73 663.05 121.35 653.82 123.14L650.82 123.73L647.17 151.2L623 161.32L601.13 144.32L598.63 145.87C590.768 150.718 583.373 156.285 576.54 162.5L574.35 164.5L582.15 183.77H581.59V193.46H582.07L569.17 210.1L541.81 206.45L540.42 209.03C536.021 217.285 532.341 225.904 529.42 234.79L528.42 237.63L550.36 254.69L549.23 262.74H302.23V259.92H292.54V262.74H73.92C62.7804 262.766 52.1053 267.207 44.2331 275.088C36.3608 282.97 31.9332 293.65 31.92 304.79V699.95H4V729.58C4 741.7 22.08 750.83 46.05 750.83H705.42C729.42 750.83 747.47 741.7 747.47 729.58V699.95H719.58V614.95H722.4V605.26H719.58V449.26C720.4 449.07 721.22 448.88 722.04 448.66L724.77 447.93L728.41 420.7L751.93 411.19L773.82 428.19L776.32 426.65C784.2 421.813 791.612 416.253 798.46 410.04L800.64 408.04L790.3 382.5L805.82 362.5L833.18 366.14L834.57 363.57C838.969 355.315 842.649 346.696 845.57 337.81L846.57 334.97L824.68 317.97L828.67 293.5ZM739 729.58C739 734.91 726.23 742.35 705.43 742.35H46.05C25.25 742.35 12.48 734.91 12.48 729.58V708.43H739V729.58ZM40.35 699.95V304.73C40.3606 295.83 43.9008 287.297 50.1941 281.004C56.4874 274.711 65.0199 271.171 73.92 271.16H677.53C686.434 271.16 694.974 274.697 701.271 280.992C707.568 287.287 711.107 295.826 711.11 304.73V699.95H40.35ZM707.27 274.95C703.373 271.033 698.738 267.928 693.633 265.815C688.528 263.702 683.055 262.623 677.53 262.64H602.93C606.968 248.099 614.662 234.834 625.281 224.11C635.899 213.386 649.087 205.56 663.588 201.379C678.089 197.198 693.419 196.8 708.117 200.224C722.815 203.648 736.391 210.78 747.551 220.939C758.711 231.098 767.083 243.946 771.868 258.259C776.654 272.572 777.694 287.872 774.89 302.7C772.085 317.529 765.529 331.392 755.847 342.968C746.165 354.545 733.679 363.448 719.58 368.83V304.73C719.595 299.205 718.514 293.733 716.402 288.628C714.289 283.523 711.185 278.888 707.27 274.99V274.95ZM836.6 337.9C834.316 344.407 831.6 350.755 828.47 356.9L802.11 353.39L780.61 381.14L790.55 405.71C785.451 410.139 780.041 414.197 774.36 417.85L753.28 401.44L720.65 414.64L719.58 422.64V377.84C735.448 372.385 749.626 362.9 760.724 350.316C771.823 337.731 779.461 322.479 782.891 306.054C786.32 289.629 785.423 272.595 780.287 256.621C775.152 240.647 765.953 226.281 753.594 214.932C741.235 203.583 726.139 195.64 709.786 191.882C693.433 188.123 676.385 188.678 660.311 193.493C644.237 198.307 629.69 207.215 618.095 219.344C606.5 231.472 598.256 246.406 594.17 262.68H557.8L559.44 250.95L538.44 234.58C540.721 228.071 543.437 221.724 546.57 215.58L572.92 219.1L594.43 191.35L584.48 166.78C589.578 162.35 594.989 158.293 600.67 154.64L621.78 171.06L655 157.22L658.49 130.97C665.209 129.91 671.978 129.189 678.77 128.81L688.69 153.91L723.43 158.78L739.84 137.69C746.16 139.87 752.58 142.79 758.84 145.69L755.3 172.23L783 193.72L807.58 183.78C812.004 188.883 816.061 194.293 819.72 199.97L803.32 221.06L816.5 253.68L842.8 257.19C844.038 263.911 844.94 270.689 845.5 277.5L821.07 287.39L815.51 321.5L836.6 337.9Z" fill="white"/>
<path d="M302.25 234.16H292.56V247.01H302.25V234.16Z" fill="white"/>
<path d="M302.25 208.46H292.56V221.31H302.25V208.46Z" fill="white"/>
<path d="M302.25 193.4H304.46V183.71H292.56V195.61H302.25V193.4Z" fill="white"/>
<path d="M391.98 183.71H377.39V193.4H391.98V183.71Z" fill="white"/>
<path d="M333.63 183.71H319.04V193.4H333.63V183.71Z" fill="white"/>
<path d="M508.67 183.71H494.08V193.4H508.67V183.71Z" fill="white"/>
<path d="M567.01 183.71H552.42V193.4H567.01V183.71Z" fill="white"/>
<path d="M537.84 183.71H523.25V193.4H537.84V183.71Z" fill="white"/>
<path d="M421.15 183.71H406.56V193.4H421.15V183.71Z" fill="white"/>
<path d="M450.32 183.71H435.73V193.4H450.32V183.71Z" fill="white"/>
<path d="M479.49 183.71H464.9V193.4H479.49V183.71Z" fill="white"/>
<path d="M362.81 183.71H348.22V193.4H362.81V183.71Z" fill="white"/>
<path d="M816.8 461.57H807.11V475.72H816.8V461.57Z" fill="white"/>
<path d="M816.8 518.15H807.11V532.3H816.8V518.15Z" fill="white"/>
<path d="M816.8 489.86H807.11V504.01H816.8V489.86Z" fill="white"/>
<path d="M816.8 433.27H807.11V447.42H816.8V433.27Z" fill="white"/>
<path d="M816.8 574.73H807.11V588.88H816.8V574.73Z" fill="white"/>
<path d="M816.8 376.69H807.11V390.84H816.8V376.69Z" fill="white"/>
<path d="M816.8 546.44H807.11V560.59H816.8V546.44Z" fill="white"/>
<path d="M816.8 404.98H807.11V419.13H816.8V404.98Z" fill="white"/>
<path d="M807.11 605.23H804.89V614.92H816.8V603.02H807.11V605.23Z" fill="white"/>
<path d="M755.4 605.23H738.9V614.92H755.4V605.23Z" fill="white"/>
<path d="M788.4 605.23H771.9V614.92H788.4V605.23Z" fill="white"/>
<path d="M228.624 552.672C229.712 552.672 230.672 552.512 231.504 552.192C232.4 551.872 233.648 551.712 235.248 551.712C236.848 551.712 237.648 552.16 237.648 553.056C237.648 554.656 236.016 555.872 232.752 556.704C225.776 558.496 220.144 558.336 215.856 556.224C213.424 555.072 211.312 553.472 209.52 551.424C205.808 547.2 203.952 542.016 203.952 535.872C203.952 534.4 204.304 532.192 205.008 529.248C205.776 526.304 206.32 524.096 206.64 522.624C207.024 521.088 207.216 519.52 207.216 517.92C207.216 516.256 206.704 514.496 205.68 512.64C204.72 510.72 203.632 508.928 202.416 507.264C201.264 505.536 200.176 503.968 199.152 502.56C198.192 501.088 197.712 499.904 197.712 499.008C197.712 498.112 198.192 497.472 199.152 497.088C202.096 495.36 204.592 492.864 206.64 489.6C208.688 486.336 209.712 483.68 209.712 481.632C209.648 479.072 209.104 475.264 208.08 470.208C207.056 465.088 206.544 461.344 206.544 458.976C206.544 454.56 208.176 451.392 211.44 449.472C214.704 447.488 218.992 446.496 224.304 446.496C229.68 446.496 234.608 447.104 239.088 448.32C240.24 448.64 240.848 448.992 240.912 449.376C240.912 450.464 239.792 451.488 237.552 452.448C235.376 453.408 233.552 453.888 232.08 453.888C230.544 453.888 228.624 453.664 226.32 453.216C224.08 452.704 221.904 452.384 219.792 452.256C219.6 452.96 219.504 453.92 219.504 455.136C219.504 456.864 220.016 460.128 221.04 464.928C222.064 469.728 222.576 473.184 222.576 475.296C222.576 479.264 221.232 483.424 218.544 487.776C215.856 492.064 212.752 495.648 209.232 498.528C216.72 504.8 220.464 510.368 220.464 515.232C220.464 516.704 220.048 519.008 219.216 522.144C218.448 525.28 217.872 527.648 217.488 529.248C217.104 530.848 216.912 532.448 216.912 534.048C216.912 538.336 217.904 542.336 219.888 546.048C222.192 550.464 225.104 552.672 228.624 552.672ZM355.799 505.344C356.887 505.344 357.431 506.816 357.431 509.76C357.431 511.36 356.759 513.312 355.415 515.616C354.071 517.856 352.311 519.936 350.135 521.856C348.023 523.712 345.655 525.248 343.031 526.464C340.407 527.68 337.847 528.288 335.351 528.288C331.575 528.288 328.951 527.36 327.479 525.504C326.071 523.584 325.367 520.8 325.367 517.152C325.367 513.44 326.807 507.104 329.687 498.144C320.855 497.76 314.423 497.568 310.391 497.568H309.047C307.895 504.672 307.319 512.128 307.319 519.936C307.319 523.392 306.007 525.76 303.383 527.04C302.167 527.616 300.983 528.16 299.831 528.672C298.743 529.184 297.559 529.44 296.279 529.44C293.079 529.44 291.479 526.56 291.479 520.8C291.479 515.04 292.791 507.648 295.415 498.624C292.599 498.944 290.103 499.264 287.927 499.584C285.815 499.904 284.151 500.064 282.935 500.064C281.719 500.064 281.111 499.744 281.111 499.104C281.111 497.184 282.679 495.232 285.815 493.248C289.015 491.264 293.335 489.76 298.775 488.736C304.791 473.44 312.151 463.232 320.855 458.112C324.055 456.192 327.447 455.232 331.031 455.232C337.431 455.296 342.039 457.024 344.855 460.416C347.735 463.808 349.175 468.32 349.175 473.952C349.239 479.52 347.543 486.784 344.087 495.744C342.807 499.2 341.623 502.336 340.535 505.152C339.447 507.968 338.903 510.24 338.903 511.968C338.903 513.696 339.031 515.008 339.287 515.904C339.543 516.8 340.151 517.248 341.111 517.248C342.839 517.248 346.903 513.92 353.303 507.264C354.455 505.984 355.287 505.344 355.799 505.344ZM335.351 476.736C335.351 471.168 333.271 468.384 329.111 468.384C324.887 468.384 321.239 470.176 318.167 473.76C315.159 477.28 312.823 482.016 311.159 487.968L332.951 488.256C334.551 483.136 335.351 479.296 335.351 476.736ZM377.484 523.776C377.484 527.552 373.804 529.44 366.444 529.44C364.844 529.44 363.884 528.64 363.564 527.04C363.308 525.376 363.18 523.072 363.18 520.128C363.18 513.92 364.428 506.24 366.924 497.088C371.084 481.984 375.532 473.088 380.268 470.4C380.908 470.016 381.612 469.824 382.38 469.824C383.148 469.824 383.532 471.072 383.532 473.568C383.532 476.064 383.404 478.272 383.148 480.192C382.636 484.032 381.708 488.992 380.364 495.072C379.084 501.152 378.444 504.736 378.444 505.824L377.484 523.776ZM384.012 497.952C384.012 497.12 384.46 496.576 385.356 496.32C386.316 496.064 387.5 495.84 388.908 495.648C390.316 495.392 391.852 495.04 393.516 494.592C395.18 494.144 396.716 493.312 398.124 492.096C401.388 489.28 403.02 484.576 403.02 477.984C403.02 473.76 401.58 470.528 398.7 468.288C395.884 466.048 391.788 464.928 386.412 464.928C381.1 464.928 376.108 466.048 371.436 468.288C369.708 469.12 368.14 469.888 366.732 470.592C365.388 471.296 364.14 471.648 362.988 471.648C361.836 471.648 361.26 471.296 361.26 470.592C361.26 469.504 362.316 467.712 364.428 465.216C366.54 462.912 369.868 460.768 374.412 458.784C379.02 456.8 383.852 455.808 388.908 455.808C398.444 455.744 405.868 457.984 411.18 462.528C415.788 466.496 418.092 471.648 418.092 477.984C418.092 484.256 415.82 489.888 411.276 494.88C406.732 499.808 401.036 502.272 394.188 502.272C387.404 502.272 384.012 500.832 384.012 497.952ZM434.825 525.792C434.825 527.584 433.545 528.48 430.985 528.48C426.953 528.48 424.201 527.712 422.729 526.176C421.257 524.576 420.521 521.92 420.521 518.208C420.585 512.448 422.153 503.232 425.225 490.56C428.361 477.888 431.305 468.48 434.057 462.336C434.761 460.736 435.753 459.232 437.033 457.824C438.313 456.352 440.009 455.616 442.121 455.616C443.017 455.616 443.753 456.16 444.329 457.248C444.969 458.336 445.289 459.584 445.289 460.992C445.289 462.4 445.033 464.512 444.521 467.328C444.009 470.08 443.369 473.248 442.601 476.832C441.833 480.416 440.969 484.288 440.009 488.448C436.553 504.256 434.825 516.704 434.825 525.792ZM495.355 550.656C503.931 550.656 508.219 548.992 508.219 545.664C508.219 543.424 507.867 541.28 507.163 539.232C506.459 537.184 505.947 535.52 505.627 534.24C505.307 533.024 505.147 531.52 505.147 529.728C505.147 526.144 506.523 521.888 509.275 516.96C512.027 511.968 515.099 508 518.491 505.056C511.003 498.4 507.259 492.8 507.259 488.256C507.259 486.848 507.643 484.672 508.411 481.728C509.243 478.784 509.851 476.576 510.235 475.104C510.619 473.632 510.811 472.096 510.811 470.496C510.811 468.896 510.555 466.976 510.043 464.736C509.595 462.496 508.859 460.416 507.835 458.496C505.531 454.08 502.619 451.872 499.099 451.872C498.011 451.872 497.019 452.032 496.123 452.352C495.291 452.672 494.075 452.832 492.475 452.832C490.875 452.832 490.075 452.384 490.075 451.488C490.075 449.888 491.707 448.672 494.971 447.84C501.947 446.048 507.579 446.208 511.867 448.32C514.299 449.472 516.411 451.072 518.203 453.12C521.915 457.344 523.771 462.528 523.771 468.672C523.771 470.144 523.387 472.224 522.619 474.912C521.915 477.6 521.371 479.648 520.987 481.056C520.667 482.464 520.507 484 520.507 485.664C520.507 487.264 520.987 488.896 521.947 490.56C522.971 492.224 524.059 493.792 525.211 495.264C526.427 496.736 527.515 498.112 528.475 499.392C529.499 500.672 530.011 501.696 530.011 502.464C530.011 503.232 529.531 503.904 528.571 504.48C525.883 505.888 523.483 508.832 521.371 513.312C519.259 517.792 518.203 521.184 518.203 523.488C518.139 526.24 518.619 530.016 519.643 534.816C520.667 539.616 521.179 543.2 521.179 545.568C521.179 549.984 519.547 553.152 516.283 555.072C513.019 557.056 508.699 558.048 503.323 558.048C498.011 558.048 493.115 557.44 488.635 556.224C487.483 555.904 486.875 555.552 486.811 555.168C486.811 554.08 487.899 553.056 490.075 552.096C492.315 551.136 494.075 550.656 495.355 550.656Z" fill="white"/>
</g>
<defs>
<filter id="filter0_d_2_42" x="0" y="0.5" width="858.39" height="858.39" filterUnits="userSpaceOnUse" color-interpolation-filters="sRGB">
<feFlood flood-opacity="0" result="BackgroundImageFix"/>
<feColorMatrix in="SourceAlpha" type="matrix" values="0 0 0 0 0 0 0 0 0 0 0 0 0 0 0 0 0 0 127 0" result="hardAlpha"/>
<feOffset dy="4"/>
<feGaussianBlur stdDeviation="2"/>
<feComposite in2="hardAlpha" operator="out"/>
<feColorMatrix type="matrix" values="0 0 0 0 0 0 0 0 0 0 0 0 0 0 0 0 0 0 0.25 0"/>
<feBlend mode="normal" in2="BackgroundImageFix" result="effect1_dropShadow_2_42"/>
<feBlend mode="normal" in="SourceGraphic" in2="effect1_dropShadow_2_42" result="shape"/>
</filter>
<clipPath id="clip0_2_42">
<rect width="850.39" height="850.39" fill="white" transform="translate(4 0.5)"/>
</clipPath>
</defs>
</svg>
