<svg width="250" height="250" viewBox="0 0 250 250" fill="none" xmlns="http://www.w3.org/2000/svg">
<g clip-path="url(#clip0_3_77)">
<path d="M65.832 189.896C67.2827 189.896 68.5627 189.683 69.672 189.256C70.8667 188.829 72.5307 188.616 74.664 188.616C76.7973 188.616 77.864 189.213 77.864 190.408C77.864 192.541 75.688 194.163 71.336 195.272C62.0347 197.661 54.5253 197.448 48.808 194.632C45.5653 193.096 42.7493 190.963 40.36 188.232C35.4107 182.6 32.936 175.688 32.936 167.496C32.936 165.533 33.4053 162.589 34.344 158.664C35.368 154.739 36.0933 151.795 36.52 149.832C37.032 147.784 37.288 145.693 37.288 143.56C37.288 141.341 36.6053 138.995 35.24 136.52C33.96 133.96 32.5093 131.571 30.888 129.352C29.352 127.048 27.9013 124.957 26.536 123.08C25.256 121.117 24.616 119.539 24.616 118.344C24.616 117.149 25.256 116.296 26.536 115.784C30.4613 113.48 33.7893 110.152 36.52 105.8C39.2507 101.448 40.616 97.9067 40.616 95.176C40.5307 91.7627 39.8053 86.6853 38.44 79.944C37.0747 73.1173 36.392 68.1253 36.392 64.968C36.392 59.08 38.568 54.856 42.92 52.296C47.272 49.6507 52.9893 48.328 60.072 48.328C67.24 48.328 73.8107 49.1387 79.784 50.76C81.32 51.1867 82.1307 51.656 82.216 52.168C82.216 53.6187 80.7227 54.984 77.736 56.264C74.8347 57.544 72.4027 58.184 70.44 58.184C68.392 58.184 65.832 57.8853 62.76 57.288C59.7733 56.6053 56.872 56.1787 54.056 56.008C53.8 56.9467 53.672 58.2267 53.672 59.848C53.672 62.152 54.3547 66.504 55.72 72.904C57.0853 79.304 57.768 83.912 57.768 86.728C57.768 92.0187 55.976 97.5653 52.392 103.368C48.808 109.085 44.6693 113.864 39.976 117.704C49.96 126.067 54.952 133.491 54.952 139.976C54.952 141.939 54.3973 145.011 53.288 149.192C52.264 153.373 51.496 156.531 50.984 158.664C50.472 160.797 50.216 162.931 50.216 165.064C50.216 170.781 51.5387 176.115 54.184 181.064C57.256 186.952 61.1387 189.896 65.832 189.896ZM178.517 126.792C179.968 126.792 180.693 128.755 180.693 132.68C180.693 134.813 179.797 137.416 178.005 140.488C176.213 143.475 173.866 146.248 170.965 148.808C168.149 151.283 164.992 153.331 161.493 154.952C157.994 156.573 154.666 157.384 151.509 157.384C148.352 157.384 145.877 156.787 144.085 155.592C142.293 154.397 140.885 152.776 139.861 150.728C138.41 147.827 137.216 142.323 136.277 134.216C135.338 126.024 134.4 120.307 133.461 117.064C131.242 116.637 129.28 115.784 127.573 114.504C125.952 113.139 125.141 111.517 125.141 109.64C125.141 107.677 125.994 106.269 127.701 105.416C129.493 104.563 131.498 104.136 133.717 104.136C136.021 104.136 138.069 104.691 139.861 105.8C142.25 103.837 144.17 101.533 145.621 98.888C147.157 96.1573 147.925 92.5307 147.925 88.008C147.925 83.4 146.389 79.7307 143.317 77C140.245 74.2693 135.722 72.904 129.749 72.904C123.861 72.904 119.338 73.3733 116.181 74.312C113.024 75.2507 110.293 76.2747 107.989 77.384C105.77 78.4933 103.765 79.5173 101.973 80.456C100.266 81.3947 98.645 81.864 97.109 81.864C95.573 81.864 94.805 81.3947 94.805 80.456C94.805 79.432 95.6157 77.8107 97.237 75.592C98.8583 73.3733 101.248 71.1547 104.405 68.936C112.341 63.3893 121.301 60.6587 131.285 60.744C141.269 60.744 149.504 62.6213 155.989 66.376C163.584 70.8133 167.381 77.4693 167.381 86.344C167.466 93.6827 165.546 99.784 161.621 104.648C157.696 109.512 152.832 113.011 147.029 115.144C148.309 117.96 149.333 120.989 150.101 124.232C150.954 127.475 151.765 130.461 152.533 133.192C153.301 135.923 154.154 138.184 155.093 139.976C156.117 141.768 157.312 142.664 158.677 142.664C160.128 142.664 161.834 141.853 163.797 140.232C165.845 138.525 167.85 136.691 169.813 134.728C171.776 132.765 173.525 130.973 175.061 129.352C176.682 127.645 177.834 126.792 178.517 126.792ZM122.837 80.712C123.946 80.712 124.501 82.1627 124.501 85.064C124.501 87.9653 124.33 90.696 123.989 93.256C123.221 98.2053 122.24 102.813 121.045 107.08C117.973 118.685 116.437 125.469 116.437 127.432V146.248C116.437 150.856 114.688 154.013 111.189 155.72C109.568 156.488 107.989 157.213 106.453 157.896C105.002 158.579 103.338 158.92 101.461 158.92C97.877 158.92 96.085 154.824 96.085 146.632C96.085 138.355 98.005 127.944 101.845 115.4C105.685 102.856 109.696 93.2987 113.877 86.728C114.73 85.448 115.968 84.1253 117.589 82.76C119.21 81.3947 120.96 80.712 122.837 80.712ZM185.348 187.208C196.783 187.208 202.5 184.989 202.5 180.552C202.5 177.565 202.031 174.707 201.092 171.976C200.153 169.245 199.471 167.027 199.044 165.32C198.617 163.699 198.404 161.693 198.404 159.304C198.404 154.525 200.239 148.851 203.908 142.28C207.577 135.624 211.673 130.333 216.196 126.408C206.212 117.533 201.22 110.067 201.22 104.008C201.22 102.131 201.732 99.2293 202.756 95.304C203.865 91.3787 204.676 88.4347 205.188 86.472C205.7 84.5093 205.956 82.4613 205.956 80.328C205.956 78.1947 205.615 75.6347 204.932 72.648C204.335 69.6613 203.353 66.888 201.988 64.328C198.916 58.44 195.033 55.496 190.34 55.496C188.889 55.496 187.567 55.7093 186.372 56.136C185.263 56.5627 183.641 56.776 181.508 56.776C179.375 56.776 178.308 56.1787 178.308 54.984C178.308 52.8507 180.484 51.2293 184.836 50.12C194.137 47.7307 201.647 47.944 207.364 50.76C210.607 52.296 213.423 54.4293 215.812 57.16C220.761 62.792 223.236 69.704 223.236 77.896C223.236 79.8587 222.724 82.632 221.7 86.216C220.761 89.8 220.036 92.5307 219.524 94.408C219.097 96.2853 218.884 98.3333 218.884 100.552C218.884 102.685 219.524 104.861 220.804 107.08C222.169 109.299 223.62 111.389 225.156 113.352C226.777 115.315 228.228 117.149 229.508 118.856C230.873 120.563 231.556 121.928 231.556 122.952C231.556 123.976 230.916 124.872 229.636 125.64C226.052 127.517 222.852 131.443 220.036 137.416C217.22 143.389 215.812 147.912 215.812 150.984C215.727 154.653 216.367 159.688 217.732 166.088C219.097 172.488 219.78 177.267 219.78 180.424C219.78 186.312 217.604 190.536 213.252 193.096C208.9 195.741 203.14 197.064 195.972 197.064C188.889 197.064 182.361 196.253 176.388 194.632C174.852 194.205 174.041 193.736 173.956 193.224C173.956 191.773 175.407 190.408 178.308 189.128C181.295 187.848 183.641 187.208 185.348 187.208Z" fill="black"/>
</g>
<defs>
<clipPath id="clip0_3_77">
<rect width="250" height="250" fill="white"/>
</clipPath>
</defs>
</svg>
