<svg width="490" height="126" viewBox="0 0 490 126" fill="none" xmlns="http://www.w3.org/2000/svg">
<mask id="path-1-outside-1_1_7" maskUnits="userSpaceOnUse" x="4" y="25" width="453" height="77" fill="black">
<rect fill="white" x="4" y="25" width="453" height="77"/>
<path d="M68.544 76.344C69.632 76.344 70.176 77.816 70.176 80.76C70.176 82.36 69.504 84.312 68.16 86.616C66.816 88.856 65.056 90.936 62.88 92.856C60.768 94.712 58.4 96.248 55.776 97.464C53.152 98.68 50.656 99.288 48.288 99.288C45.92 99.288 44.064 98.84 42.72 97.944C41.376 97.048 40.32 95.832 39.552 94.296C38.464 92.12 37.568 87.992 36.864 81.912C36.16 75.768 35.456 71.48 34.752 69.048C33.088 68.728 31.616 68.088 30.336 67.128C29.12 66.104 28.512 64.888 28.512 63.48C28.512 62.008 29.152 60.952 30.432 60.312C31.776 59.672 33.28 59.352 34.944 59.352C36.672 59.352 38.208 59.768 39.552 60.6C41.344 59.128 42.784 57.4 43.872 55.416C45.024 53.368 45.6 50.648 45.6 47.256C45.6 43.8 44.448 41.048 42.144 39C39.84 36.952 36.448 35.928 31.968 35.928C27.552 35.928 24.16 36.28 21.792 36.984C19.424 37.688 17.376 38.456 15.648 39.288C13.984 40.12 12.48 40.888 11.136 41.592C9.856 42.296 8.64 42.648 7.488 42.648C6.336 42.648 5.76 42.296 5.76 41.592C5.76 40.824 6.368 39.608 7.584 37.944C8.8 36.28 10.592 34.616 12.96 32.952C18.912 28.792 25.632 26.744 33.12 26.808C40.608 26.808 46.784 28.216 51.648 31.032C57.344 34.36 60.192 39.352 60.192 46.008C60.256 51.512 58.816 56.088 55.872 59.736C52.928 63.384 49.28 66.008 44.928 67.608C45.888 69.72 46.656 71.992 47.232 74.424C47.872 76.856 48.48 79.096 49.056 81.144C49.632 83.192 50.272 84.888 50.976 86.232C51.744 87.576 52.64 88.248 53.664 88.248C54.752 88.248 56.032 87.64 57.504 86.424C59.04 85.144 60.544 83.768 62.016 82.296C63.488 80.824 64.8 79.48 65.952 78.264C67.168 76.984 68.032 76.344 68.544 76.344ZM26.784 41.784C27.616 41.784 28.032 42.872 28.032 45.048C28.032 47.224 27.904 49.272 27.648 51.192C27.072 54.904 26.336 58.36 25.44 61.56C23.136 70.264 21.984 75.352 21.984 76.824V90.936C21.984 94.392 20.672 96.76 18.048 98.04C16.832 98.616 15.648 99.16 14.496 99.672C13.408 100.184 12.16 100.44 10.752 100.44C8.064 100.44 6.72 97.368 6.72 91.224C6.72 85.016 8.16 77.208 11.04 67.8C13.92 58.392 16.928 51.224 20.064 46.296C20.704 45.336 21.632 44.344 22.848 43.32C24.064 42.296 25.376 41.784 26.784 41.784ZM140.081 76.344C141.169 76.344 141.713 77.816 141.713 80.76C141.713 82.36 141.041 84.312 139.697 86.616C138.353 88.856 136.593 90.936 134.417 92.856C132.305 94.712 129.937 96.248 127.312 97.464C124.689 98.68 122.129 99.288 119.633 99.288C115.857 99.288 113.233 98.36 111.761 96.504C110.353 94.584 109.649 91.8 109.649 88.152C109.649 84.44 111.089 78.104 113.969 69.144C105.137 68.76 98.7045 68.568 94.6725 68.568H93.3285C92.1765 75.672 91.6005 83.128 91.6005 90.936C91.6005 94.392 90.2885 96.76 87.6645 98.04C86.4485 98.616 85.2645 99.16 84.1125 99.672C83.0245 100.184 81.8405 100.44 80.5605 100.44C77.3605 100.44 75.7605 97.56 75.7605 91.8C75.7605 86.04 77.0725 78.648 79.6965 69.624C76.8805 69.944 74.3845 70.264 72.2085 70.584C70.0965 70.904 68.4325 71.064 67.2165 71.064C66.0005 71.064 65.3925 70.744 65.3925 70.104C65.3925 68.184 66.9605 66.232 70.0965 64.248C73.2965 62.264 77.6165 60.76 83.0565 59.736C89.0725 44.44 96.4325 34.232 105.137 29.112C108.337 27.192 111.729 26.232 115.312 26.232C121.713 26.296 126.321 28.024 129.137 31.416C132.017 34.808 133.457 39.32 133.457 44.952C133.521 50.52 131.825 57.784 128.369 66.744C127.089 70.2 125.905 73.336 124.817 76.152C123.729 78.968 123.185 81.24 123.185 82.968C123.185 84.696 123.313 86.008 123.569 86.904C123.825 87.8 124.433 88.248 125.393 88.248C127.121 88.248 131.185 84.92 137.585 78.264C138.737 76.984 139.569 76.344 140.081 76.344ZM119.633 47.736C119.633 42.168 117.553 39.384 113.393 39.384C109.169 39.384 105.521 41.176 102.449 44.76C99.4405 48.28 97.1045 53.016 95.4405 58.968L117.233 59.256C118.833 54.136 119.633 50.296 119.633 47.736ZM140.398 39.288C139.695 39.864 138.959 40.408 138.191 40.92C137.423 41.432 136.527 41.688 135.503 41.688C134.543 41.688 134.062 40.824 134.062 39.096C134.062 35.576 135.695 32.696 138.959 30.456C142.095 28.152 145.839 27 150.191 27C154.543 27 157.807 28.792 159.983 32.376C161.647 35 162.479 37.976 162.479 41.304C162.479 44.568 162.127 47.768 161.423 50.904C160.719 53.976 159.951 57.144 159.119 60.408C158.351 63.672 157.615 67 156.911 70.392C156.207 73.72 155.855 76.472 155.855 78.648C155.855 80.76 155.951 82.168 156.143 82.872C157.039 85.688 159.471 87.096 163.439 87.096C166.447 87.096 169.263 86.232 171.887 84.504C179.119 79.768 183.727 70.392 185.711 56.376C180.527 56.056 176.527 54.424 173.711 51.48C170.959 48.472 169.583 44.44 169.583 39.384C169.583 35.736 170.767 32.664 173.135 30.168C175.503 27.672 178.735 26.424 182.831 26.424C186.927 26.36 189.999 27.768 192.047 30.648C194.095 33.528 195.119 37.432 195.119 42.36V44.568C195.119 45.336 195.087 46.072 195.023 46.776C196.111 46.264 197.039 45.752 197.807 45.24C198.575 44.664 199.343 44.376 200.111 44.376C201.391 44.376 202.031 44.92 202.031 46.008C202.031 48.12 201.359 49.976 200.015 51.576C198.735 53.112 196.975 54.296 194.735 55.128C194.095 63.384 193.039 69.688 191.567 74.04C190.159 78.392 188.623 82.008 186.958 84.888C185.359 87.768 183.279 90.296 180.719 92.472C175.343 97.016 168.399 99.288 159.887 99.288C154.191 99.288 149.647 97.88 146.255 95.064C142.927 92.184 141.263 87.672 141.263 81.528C141.263 80.056 142.063 76.184 143.663 69.912C145.327 63.576 146.639 58.392 147.599 54.36C148.559 50.264 149.039 47.032 149.039 44.664C149.039 39.48 147.727 36.888 145.103 36.888C144.207 36.888 143.375 37.144 142.607 37.656C141.903 38.168 141.167 38.712 140.398 39.288ZM186.575 46.488C186.703 44.696 186.767 42.872 186.767 41.016C186.767 36.856 185.807 34.776 183.887 34.776C182.543 34.712 181.871 35.768 181.871 37.944C181.871 41.912 183.439 44.76 186.575 46.488ZM257.254 79.512C257.254 85.336 258.054 88.248 259.654 88.248C260.614 88.248 261.798 87.64 263.206 86.424C264.614 85.208 266.022 83.896 267.43 82.488C268.838 81.016 270.118 79.672 271.27 78.456C272.486 77.24 273.318 76.632 273.766 76.632C274.662 76.632 275.11 77.72 275.11 79.896C275.11 84.376 272.838 88.728 268.294 92.952C263.814 97.176 259.014 99.288 253.894 99.288C250.694 99.352 248.518 97.976 247.366 95.16C246.47 92.92 246.022 89.336 246.022 84.408C241.734 94.328 235.366 99.288 226.918 99.288C221.222 99.288 216.678 97.88 213.286 95.064C209.958 92.184 208.294 87.672 208.294 81.528C208.294 80.056 209.094 76.184 210.694 69.912C212.358 63.576 213.67 58.392 214.63 54.36C215.59 50.264 216.07 47.032 216.07 44.664C216.07 39.48 214.758 36.888 212.134 36.888C211.238 36.888 210.406 37.144 209.638 37.656C208.934 38.168 208.198 38.712 207.43 39.288C206.726 39.864 205.99 40.408 205.222 40.92C204.454 41.432 203.558 41.688 202.534 41.688C201.574 41.688 201.094 40.824 201.094 39.096C201.094 35.576 202.726 32.696 205.99 30.456C209.126 28.152 212.87 27 217.222 27C221.574 27 224.838 28.792 227.014 32.376C228.678 35 229.51 37.976 229.51 41.304C229.51 44.568 229.158 47.768 228.454 50.904C227.75 53.976 226.982 57.144 226.15 60.408C225.382 63.672 224.646 67 223.942 70.392C223.238 73.72 222.886 76.472 222.886 78.648C222.886 80.76 222.982 82.168 223.174 82.872C224.07 85.688 226.246 87.096 229.702 87.096C234.182 87.096 238.086 84.28 241.414 78.648C244.23 73.912 246.214 68.152 247.366 61.368L247.942 57.048L247.558 36.984C247.558 34.04 248.838 31.608 251.398 29.688C253.958 27.768 256.646 26.84 259.462 26.904C260.614 26.904 261.35 27.768 261.67 29.496C261.99 31.16 262.15 33.016 262.15 35.064C262.15 37.112 262.022 39.096 261.766 41.016C261.51 42.872 261.19 45.048 260.806 47.544C260.486 49.976 260.102 52.6 259.654 55.416C257.99 67 257.19 75.032 257.254 79.512ZM298.285 94.776C298.285 98.552 294.605 100.44 287.245 100.44C285.645 100.44 284.685 99.64 284.365 98.04C284.109 96.376 283.981 94.328 283.981 91.896C283.981 89.464 284.141 86.872 284.461 84.12C284.845 81.304 285.325 78.264 285.901 75C286.989 68.728 288.525 61.976 290.509 54.744C292.557 47.448 294.573 41.816 296.557 37.848C292.525 38.104 288.525 38.84 284.557 40.056C280.589 41.208 277.773 42.04 276.109 42.552C274.445 43 273.069 43.224 271.981 43.224C270.893 43.224 270.349 42.872 270.349 42.168C270.349 41.336 270.989 40.12 272.269 38.52C273.549 36.856 275.373 35.192 277.741 33.528C283.757 29.432 290.445 27.352 297.805 27.288L329.389 27.576C331.117 27.576 331.981 28.248 331.981 29.592C331.981 29.976 331.725 30.68 331.213 31.704C330.701 32.664 330.253 33.72 329.869 34.872C329.037 37.176 327.277 38.328 324.589 38.328C321.965 38.328 315.661 38.136 305.677 37.752C305.421 40.568 304.909 44.184 304.141 48.6C303.373 52.952 302.541 57.72 301.645 62.904C299.469 76.152 298.349 86.776 298.285 94.776ZM355.577 58.968C362.361 58.968 368.633 59.032 374.393 59.16C377.401 47 380.345 38.552 383.225 33.816C385.145 31.064 387.065 29.08 388.985 27.864C389.753 27.352 390.521 27.096 391.289 27.096C392.121 27.096 392.537 28.344 392.537 30.84C392.537 33.336 392.313 35.96 391.865 38.712C391.481 41.464 390.969 44.632 390.329 48.216C388.217 59.992 386.617 69.4 385.529 76.44C384.505 83.48 383.993 90.264 383.993 96.792C383.993 98.584 382.713 99.48 380.153 99.48C376.121 99.48 373.369 98.712 371.897 97.176C370.425 95.576 369.689 92.728 369.689 88.632C369.689 84.472 370.521 77.944 372.185 69.048C365.145 68.728 360.697 68.568 358.841 68.568H354.905C354.201 68.568 353.497 68.6 352.793 68.664C349.913 79.672 348.473 88.376 348.473 94.776C348.473 98.552 344.793 100.44 337.433 100.44C335.833 100.44 334.873 99.64 334.553 98.04C334.297 96.376 334.169 93.72 334.169 90.072C334.169 86.36 335.321 79.736 337.625 70.2C333.721 70.776 330.873 71.064 329.081 71.064C328.249 71.064 327.833 70.744 327.833 70.104C327.833 68.696 328.857 67.096 330.905 65.304C333.017 63.512 336.089 62.072 340.121 60.984C342.489 52.792 344.857 46.072 347.225 40.824C340.313 40.952 335.225 42.296 331.961 44.856C330.937 45.624 330.105 46.328 329.465 46.968C328.825 47.544 328.249 47.832 327.737 47.832C327.289 47.832 326.841 47.448 326.393 46.68C325.945 45.912 325.721 44.888 325.721 43.608C325.721 38.936 329.657 35.384 337.529 32.952C343.801 31.032 351.097 30.04 359.417 29.976H359.609C360.057 29.976 360.665 30.232 361.433 30.744C362.265 31.256 362.681 32.088 362.681 33.24C362.681 34.392 362.457 35.704 362.009 37.176C361.625 38.584 361.081 39.64 360.377 40.344C359.993 43.352 358.393 49.56 355.577 58.968ZM454.344 76.344C455.304 76.344 455.784 77.432 455.784 79.608C455.784 84.152 453.672 88.568 449.448 92.856C445.224 97.08 440.072 99.224 433.992 99.288C431.304 99.288 428.744 98.776 426.312 97.752C423.88 96.728 421.576 95.576 419.4 94.296L419.016 94.584C415.24 98.616 410.248 100.632 404.04 100.632C400.072 100.632 397.16 99.64 395.304 97.656C393.448 95.672 392.52 93.048 392.52 89.784C392.52 86.52 393.704 84.088 396.072 82.488C398.504 80.824 401.608 79.992 405.384 79.992C409.16 79.992 412.776 80.44 416.232 81.336C418.408 77.56 420.552 73.24 422.664 68.376C419.4 68.696 416.264 69.08 413.256 69.528C410.248 69.912 407.816 70.104 405.96 70.104C405.128 70.104 404.712 69.784 404.712 69.144C404.712 66.776 406.728 64.632 410.76 62.712C414.792 60.728 419.944 59.288 426.216 58.392C427.304 55 428.232 51.768 429 48.696C429.832 45.624 430.696 42.648 431.592 39.768C428.712 38.808 426.088 38.328 423.72 38.328C419.688 38.328 415.272 39.096 410.472 40.632C405.736 42.168 402.92 42.968 402.024 43.032C400.104 43.032 399.144 42.328 399.144 40.92C399.144 38.808 401.704 36.344 406.824 33.528C412.392 30.584 418.536 29.08 425.256 29.016C436.008 29.016 443.016 30.648 446.28 33.912C447.176 34.808 447.624 35.864 447.624 37.08C447.624 41.816 445.608 48.856 441.576 58.2H447.144C448.552 58.2 449.256 58.84 449.256 60.12C449.256 60.504 449.096 61.176 448.776 62.136C448.456 63.096 448.168 64.088 447.912 65.112C447.4 67.224 446.312 68.28 444.648 68.28C443.304 68.28 440.776 68.12 437.064 67.8C433.48 74.776 429.96 80.728 426.504 85.656C428.36 86.616 430.216 87.448 432.072 88.152C433.928 88.856 435.912 89.208 438.024 89.208C440.136 89.208 441.96 88.536 443.496 87.192C445.096 85.848 446.568 84.376 447.912 82.776C449.32 81.176 450.568 79.704 451.656 78.36C452.744 77.016 453.64 76.344 454.344 76.344ZM410.856 89.208C408.68 88.12 406.824 87.576 405.288 87.576C404.392 87.576 403.592 87.832 402.888 88.344C402.184 88.792 401.832 89.496 401.832 90.456C401.832 91.416 402.184 92.12 402.888 92.568C403.592 92.952 404.328 93.144 405.096 93.144C406.504 93.144 408.424 91.832 410.856 89.208Z"/>
</mask>
<path d="M68.544 76.344C69.632 76.344 70.176 77.816 70.176 80.76C70.176 82.36 69.504 84.312 68.16 86.616C66.816 88.856 65.056 90.936 62.88 92.856C60.768 94.712 58.4 96.248 55.776 97.464C53.152 98.68 50.656 99.288 48.288 99.288C45.92 99.288 44.064 98.84 42.72 97.944C41.376 97.048 40.32 95.832 39.552 94.296C38.464 92.12 37.568 87.992 36.864 81.912C36.16 75.768 35.456 71.48 34.752 69.048C33.088 68.728 31.616 68.088 30.336 67.128C29.12 66.104 28.512 64.888 28.512 63.48C28.512 62.008 29.152 60.952 30.432 60.312C31.776 59.672 33.28 59.352 34.944 59.352C36.672 59.352 38.208 59.768 39.552 60.6C41.344 59.128 42.784 57.4 43.872 55.416C45.024 53.368 45.6 50.648 45.6 47.256C45.6 43.8 44.448 41.048 42.144 39C39.84 36.952 36.448 35.928 31.968 35.928C27.552 35.928 24.16 36.28 21.792 36.984C19.424 37.688 17.376 38.456 15.648 39.288C13.984 40.12 12.48 40.888 11.136 41.592C9.856 42.296 8.64 42.648 7.488 42.648C6.336 42.648 5.76 42.296 5.76 41.592C5.76 40.824 6.368 39.608 7.584 37.944C8.8 36.28 10.592 34.616 12.96 32.952C18.912 28.792 25.632 26.744 33.12 26.808C40.608 26.808 46.784 28.216 51.648 31.032C57.344 34.36 60.192 39.352 60.192 46.008C60.256 51.512 58.816 56.088 55.872 59.736C52.928 63.384 49.28 66.008 44.928 67.608C45.888 69.72 46.656 71.992 47.232 74.424C47.872 76.856 48.48 79.096 49.056 81.144C49.632 83.192 50.272 84.888 50.976 86.232C51.744 87.576 52.64 88.248 53.664 88.248C54.752 88.248 56.032 87.64 57.504 86.424C59.04 85.144 60.544 83.768 62.016 82.296C63.488 80.824 64.8 79.48 65.952 78.264C67.168 76.984 68.032 76.344 68.544 76.344ZM26.784 41.784C27.616 41.784 28.032 42.872 28.032 45.048C28.032 47.224 27.904 49.272 27.648 51.192C27.072 54.904 26.336 58.36 25.44 61.56C23.136 70.264 21.984 75.352 21.984 76.824V90.936C21.984 94.392 20.672 96.76 18.048 98.04C16.832 98.616 15.648 99.16 14.496 99.672C13.408 100.184 12.16 100.44 10.752 100.44C8.064 100.44 6.72 97.368 6.72 91.224C6.72 85.016 8.16 77.208 11.04 67.8C13.92 58.392 16.928 51.224 20.064 46.296C20.704 45.336 21.632 44.344 22.848 43.32C24.064 42.296 25.376 41.784 26.784 41.784ZM140.081 76.344C141.169 76.344 141.713 77.816 141.713 80.76C141.713 82.36 141.041 84.312 139.697 86.616C138.353 88.856 136.593 90.936 134.417 92.856C132.305 94.712 129.937 96.248 127.312 97.464C124.689 98.68 122.129 99.288 119.633 99.288C115.857 99.288 113.233 98.36 111.761 96.504C110.353 94.584 109.649 91.8 109.649 88.152C109.649 84.44 111.089 78.104 113.969 69.144C105.137 68.76 98.7045 68.568 94.6725 68.568H93.3285C92.1765 75.672 91.6005 83.128 91.6005 90.936C91.6005 94.392 90.2885 96.76 87.6645 98.04C86.4485 98.616 85.2645 99.16 84.1125 99.672C83.0245 100.184 81.8405 100.44 80.5605 100.44C77.3605 100.44 75.7605 97.56 75.7605 91.8C75.7605 86.04 77.0725 78.648 79.6965 69.624C76.8805 69.944 74.3845 70.264 72.2085 70.584C70.0965 70.904 68.4325 71.064 67.2165 71.064C66.0005 71.064 65.3925 70.744 65.3925 70.104C65.3925 68.184 66.9605 66.232 70.0965 64.248C73.2965 62.264 77.6165 60.76 83.0565 59.736C89.0725 44.44 96.4325 34.232 105.137 29.112C108.337 27.192 111.729 26.232 115.312 26.232C121.713 26.296 126.321 28.024 129.137 31.416C132.017 34.808 133.457 39.32 133.457 44.952C133.521 50.52 131.825 57.784 128.369 66.744C127.089 70.2 125.905 73.336 124.817 76.152C123.729 78.968 123.185 81.24 123.185 82.968C123.185 84.696 123.313 86.008 123.569 86.904C123.825 87.8 124.433 88.248 125.393 88.248C127.121 88.248 131.185 84.92 137.585 78.264C138.737 76.984 139.569 76.344 140.081 76.344ZM119.633 47.736C119.633 42.168 117.553 39.384 113.393 39.384C109.169 39.384 105.521 41.176 102.449 44.76C99.4405 48.28 97.1045 53.016 95.4405 58.968L117.233 59.256C118.833 54.136 119.633 50.296 119.633 47.736ZM140.398 39.288C139.695 39.864 138.959 40.408 138.191 40.92C137.423 41.432 136.527 41.688 135.503 41.688C134.543 41.688 134.062 40.824 134.062 39.096C134.062 35.576 135.695 32.696 138.959 30.456C142.095 28.152 145.839 27 150.191 27C154.543 27 157.807 28.792 159.983 32.376C161.647 35 162.479 37.976 162.479 41.304C162.479 44.568 162.127 47.768 161.423 50.904C160.719 53.976 159.951 57.144 159.119 60.408C158.351 63.672 157.615 67 156.911 70.392C156.207 73.72 155.855 76.472 155.855 78.648C155.855 80.76 155.951 82.168 156.143 82.872C157.039 85.688 159.471 87.096 163.439 87.096C166.447 87.096 169.263 86.232 171.887 84.504C179.119 79.768 183.727 70.392 185.711 56.376C180.527 56.056 176.527 54.424 173.711 51.48C170.959 48.472 169.583 44.44 169.583 39.384C169.583 35.736 170.767 32.664 173.135 30.168C175.503 27.672 178.735 26.424 182.831 26.424C186.927 26.36 189.999 27.768 192.047 30.648C194.095 33.528 195.119 37.432 195.119 42.36V44.568C195.119 45.336 195.087 46.072 195.023 46.776C196.111 46.264 197.039 45.752 197.807 45.24C198.575 44.664 199.343 44.376 200.111 44.376C201.391 44.376 202.031 44.92 202.031 46.008C202.031 48.12 201.359 49.976 200.015 51.576C198.735 53.112 196.975 54.296 194.735 55.128C194.095 63.384 193.039 69.688 191.567 74.04C190.159 78.392 188.623 82.008 186.958 84.888C185.359 87.768 183.279 90.296 180.719 92.472C175.343 97.016 168.399 99.288 159.887 99.288C154.191 99.288 149.647 97.88 146.255 95.064C142.927 92.184 141.263 87.672 141.263 81.528C141.263 80.056 142.063 76.184 143.663 69.912C145.327 63.576 146.639 58.392 147.599 54.36C148.559 50.264 149.039 47.032 149.039 44.664C149.039 39.48 147.727 36.888 145.103 36.888C144.207 36.888 143.375 37.144 142.607 37.656C141.903 38.168 141.167 38.712 140.398 39.288ZM186.575 46.488C186.703 44.696 186.767 42.872 186.767 41.016C186.767 36.856 185.807 34.776 183.887 34.776C182.543 34.712 181.871 35.768 181.871 37.944C181.871 41.912 183.439 44.76 186.575 46.488ZM257.254 79.512C257.254 85.336 258.054 88.248 259.654 88.248C260.614 88.248 261.798 87.64 263.206 86.424C264.614 85.208 266.022 83.896 267.43 82.488C268.838 81.016 270.118 79.672 271.27 78.456C272.486 77.24 273.318 76.632 273.766 76.632C274.662 76.632 275.11 77.72 275.11 79.896C275.11 84.376 272.838 88.728 268.294 92.952C263.814 97.176 259.014 99.288 253.894 99.288C250.694 99.352 248.518 97.976 247.366 95.16C246.47 92.92 246.022 89.336 246.022 84.408C241.734 94.328 235.366 99.288 226.918 99.288C221.222 99.288 216.678 97.88 213.286 95.064C209.958 92.184 208.294 87.672 208.294 81.528C208.294 80.056 209.094 76.184 210.694 69.912C212.358 63.576 213.67 58.392 214.63 54.36C215.59 50.264 216.07 47.032 216.07 44.664C216.07 39.48 214.758 36.888 212.134 36.888C211.238 36.888 210.406 37.144 209.638 37.656C208.934 38.168 208.198 38.712 207.43 39.288C206.726 39.864 205.99 40.408 205.222 40.92C204.454 41.432 203.558 41.688 202.534 41.688C201.574 41.688 201.094 40.824 201.094 39.096C201.094 35.576 202.726 32.696 205.99 30.456C209.126 28.152 212.87 27 217.222 27C221.574 27 224.838 28.792 227.014 32.376C228.678 35 229.51 37.976 229.51 41.304C229.51 44.568 229.158 47.768 228.454 50.904C227.75 53.976 226.982 57.144 226.15 60.408C225.382 63.672 224.646 67 223.942 70.392C223.238 73.72 222.886 76.472 222.886 78.648C222.886 80.76 222.982 82.168 223.174 82.872C224.07 85.688 226.246 87.096 229.702 87.096C234.182 87.096 238.086 84.28 241.414 78.648C244.23 73.912 246.214 68.152 247.366 61.368L247.942 57.048L247.558 36.984C247.558 34.04 248.838 31.608 251.398 29.688C253.958 27.768 256.646 26.84 259.462 26.904C260.614 26.904 261.35 27.768 261.67 29.496C261.99 31.16 262.15 33.016 262.15 35.064C262.15 37.112 262.022 39.096 261.766 41.016C261.51 42.872 261.19 45.048 260.806 47.544C260.486 49.976 260.102 52.6 259.654 55.416C257.99 67 257.19 75.032 257.254 79.512ZM298.285 94.776C298.285 98.552 294.605 100.44 287.245 100.44C285.645 100.44 284.685 99.64 284.365 98.04C284.109 96.376 283.981 94.328 283.981 91.896C283.981 89.464 284.141 86.872 284.461 84.12C284.845 81.304 285.325 78.264 285.901 75C286.989 68.728 288.525 61.976 290.509 54.744C292.557 47.448 294.573 41.816 296.557 37.848C292.525 38.104 288.525 38.84 284.557 40.056C280.589 41.208 277.773 42.04 276.109 42.552C274.445 43 273.069 43.224 271.981 43.224C270.893 43.224 270.349 42.872 270.349 42.168C270.349 41.336 270.989 40.12 272.269 38.52C273.549 36.856 275.373 35.192 277.741 33.528C283.757 29.432 290.445 27.352 297.805 27.288L329.389 27.576C331.117 27.576 331.981 28.248 331.981 29.592C331.981 29.976 331.725 30.68 331.213 31.704C330.701 32.664 330.253 33.72 329.869 34.872C329.037 37.176 327.277 38.328 324.589 38.328C321.965 38.328 315.661 38.136 305.677 37.752C305.421 40.568 304.909 44.184 304.141 48.6C303.373 52.952 302.541 57.72 301.645 62.904C299.469 76.152 298.349 86.776 298.285 94.776ZM355.577 58.968C362.361 58.968 368.633 59.032 374.393 59.16C377.401 47 380.345 38.552 383.225 33.816C385.145 31.064 387.065 29.08 388.985 27.864C389.753 27.352 390.521 27.096 391.289 27.096C392.121 27.096 392.537 28.344 392.537 30.84C392.537 33.336 392.313 35.96 391.865 38.712C391.481 41.464 390.969 44.632 390.329 48.216C388.217 59.992 386.617 69.4 385.529 76.44C384.505 83.48 383.993 90.264 383.993 96.792C383.993 98.584 382.713 99.48 380.153 99.48C376.121 99.48 373.369 98.712 371.897 97.176C370.425 95.576 369.689 92.728 369.689 88.632C369.689 84.472 370.521 77.944 372.185 69.048C365.145 68.728 360.697 68.568 358.841 68.568H354.905C354.201 68.568 353.497 68.6 352.793 68.664C349.913 79.672 348.473 88.376 348.473 94.776C348.473 98.552 344.793 100.44 337.433 100.44C335.833 100.44 334.873 99.64 334.553 98.04C334.297 96.376 334.169 93.72 334.169 90.072C334.169 86.36 335.321 79.736 337.625 70.2C333.721 70.776 330.873 71.064 329.081 71.064C328.249 71.064 327.833 70.744 327.833 70.104C327.833 68.696 328.857 67.096 330.905 65.304C333.017 63.512 336.089 62.072 340.121 60.984C342.489 52.792 344.857 46.072 347.225 40.824C340.313 40.952 335.225 42.296 331.961 44.856C330.937 45.624 330.105 46.328 329.465 46.968C328.825 47.544 328.249 47.832 327.737 47.832C327.289 47.832 326.841 47.448 326.393 46.68C325.945 45.912 325.721 44.888 325.721 43.608C325.721 38.936 329.657 35.384 337.529 32.952C343.801 31.032 351.097 30.04 359.417 29.976H359.609C360.057 29.976 360.665 30.232 361.433 30.744C362.265 31.256 362.681 32.088 362.681 33.24C362.681 34.392 362.457 35.704 362.009 37.176C361.625 38.584 361.081 39.64 360.377 40.344C359.993 43.352 358.393 49.56 355.577 58.968ZM454.344 76.344C455.304 76.344 455.784 77.432 455.784 79.608C455.784 84.152 453.672 88.568 449.448 92.856C445.224 97.08 440.072 99.224 433.992 99.288C431.304 99.288 428.744 98.776 426.312 97.752C423.88 96.728 421.576 95.576 419.4 94.296L419.016 94.584C415.24 98.616 410.248 100.632 404.04 100.632C400.072 100.632 397.16 99.64 395.304 97.656C393.448 95.672 392.52 93.048 392.52 89.784C392.52 86.52 393.704 84.088 396.072 82.488C398.504 80.824 401.608 79.992 405.384 79.992C409.16 79.992 412.776 80.44 416.232 81.336C418.408 77.56 420.552 73.24 422.664 68.376C419.4 68.696 416.264 69.08 413.256 69.528C410.248 69.912 407.816 70.104 405.96 70.104C405.128 70.104 404.712 69.784 404.712 69.144C404.712 66.776 406.728 64.632 410.76 62.712C414.792 60.728 419.944 59.288 426.216 58.392C427.304 55 428.232 51.768 429 48.696C429.832 45.624 430.696 42.648 431.592 39.768C428.712 38.808 426.088 38.328 423.72 38.328C419.688 38.328 415.272 39.096 410.472 40.632C405.736 42.168 402.92 42.968 402.024 43.032C400.104 43.032 399.144 42.328 399.144 40.92C399.144 38.808 401.704 36.344 406.824 33.528C412.392 30.584 418.536 29.08 425.256 29.016C436.008 29.016 443.016 30.648 446.28 33.912C447.176 34.808 447.624 35.864 447.624 37.08C447.624 41.816 445.608 48.856 441.576 58.2H447.144C448.552 58.2 449.256 58.84 449.256 60.12C449.256 60.504 449.096 61.176 448.776 62.136C448.456 63.096 448.168 64.088 447.912 65.112C447.4 67.224 446.312 68.28 444.648 68.28C443.304 68.28 440.776 68.12 437.064 67.8C433.48 74.776 429.96 80.728 426.504 85.656C428.36 86.616 430.216 87.448 432.072 88.152C433.928 88.856 435.912 89.208 438.024 89.208C440.136 89.208 441.96 88.536 443.496 87.192C445.096 85.848 446.568 84.376 447.912 82.776C449.32 81.176 450.568 79.704 451.656 78.36C452.744 77.016 453.64 76.344 454.344 76.344ZM410.856 89.208C408.68 88.12 406.824 87.576 405.288 87.576C404.392 87.576 403.592 87.832 402.888 88.344C402.184 88.792 401.832 89.496 401.832 90.456C401.832 91.416 402.184 92.12 402.888 92.568C403.592 92.952 404.328 93.144 405.096 93.144C406.504 93.144 408.424 91.832 410.856 89.208Z" fill="#ECF0F1"/>
<path d="M68.16 86.616L69.0176 87.1305L69.0238 87.1199L68.16 86.616ZM62.88 92.856L63.5401 93.6072L63.5416 93.6058L62.88 92.856ZM55.776 97.464L55.3555 96.5567L55.3555 96.5567L55.776 97.464ZM42.72 97.944L43.2747 97.1119L43.2747 97.1119L42.72 97.944ZM39.552 94.296L40.4464 93.8488L40.4464 93.8488L39.552 94.296ZM36.864 81.912L35.8705 82.0258L35.8706 82.027L36.864 81.912ZM34.752 69.048L35.7126 68.7699L35.5423 68.1817L34.9408 68.066L34.752 69.048ZM30.336 67.128L29.6919 67.8929L29.7134 67.9111L29.736 67.928L30.336 67.128ZM30.432 60.312L30.0021 59.4091L29.9934 59.4133L29.9848 59.4176L30.432 60.312ZM39.552 60.6L39.0256 61.4503L39.6339 61.8268L40.1867 61.3727L39.552 60.6ZM43.872 55.416L43.0004 54.9257L42.9952 54.9352L43.872 55.416ZM42.144 39L41.4796 39.7474L41.4796 39.7474L42.144 39ZM21.792 36.984L22.077 37.9425L22.077 37.9425L21.792 36.984ZM15.648 39.288L15.2142 38.387L15.2075 38.3902L15.2008 38.3936L15.648 39.288ZM11.136 41.592L10.672 40.7062L10.663 40.7109L10.6541 40.7158L11.136 41.592ZM12.96 32.952L12.3871 32.1323L12.3851 32.1338L12.96 32.952ZM33.12 26.808L33.1115 27.808H33.12V26.808ZM51.648 31.032L52.1525 30.1686L52.149 30.1666L51.648 31.032ZM60.192 46.008L59.1919 46.008L59.1921 46.0196L60.192 46.008ZM55.872 59.736L56.6502 60.364L56.6502 60.364L55.872 59.736ZM44.928 67.608L44.5829 66.6694L43.5719 67.0411L44.0176 68.0218L44.928 67.608ZM47.232 74.424L46.2589 74.6545L46.2618 74.6665L46.2649 74.6785L47.232 74.424ZM49.056 81.144L48.0934 81.4147L48.0934 81.4147L49.056 81.144ZM50.976 86.232L50.0902 86.696L50.0987 86.7122L50.1078 86.7281L50.976 86.232ZM57.504 86.424L58.1409 87.195L58.1442 87.1922L57.504 86.424ZM65.952 78.264L65.227 77.5752L65.2261 77.5763L65.952 78.264ZM27.648 51.192L28.6362 51.3453L28.6378 51.3348L28.6392 51.3242L27.648 51.192ZM25.44 61.56L24.477 61.2904L24.4751 61.2972L24.4733 61.3041L25.44 61.56ZM18.048 98.04L18.4761 98.9438L18.4864 98.9388L18.048 98.04ZM14.496 99.672L14.0899 98.7582L14.08 98.7626L14.0702 98.7672L14.496 99.672ZM11.04 67.8L10.0838 67.5073L10.0838 67.5073L11.04 67.8ZM20.064 46.296L19.232 45.7413L19.2261 45.7501L19.2203 45.7591L20.064 46.296ZM22.848 43.32L22.2039 42.5551L22.2039 42.5551L22.848 43.32ZM68.544 77.344C68.5659 77.344 68.5659 77.3424 68.5882 77.3626C68.6318 77.4019 68.7276 77.5176 68.83 77.7946C69.0393 78.3611 69.176 79.3214 69.176 80.76H71.176C71.176 79.2546 71.0407 78.0069 70.706 77.1013C70.5364 76.6424 70.2922 76.2061 69.9278 75.8774C69.5421 75.5296 69.0661 75.344 68.544 75.344V77.344ZM69.176 80.76C69.176 82.1014 68.6038 83.8705 67.2962 86.1121L69.0238 87.1199C70.4042 84.7535 71.176 82.6186 71.176 80.76H69.176ZM67.3025 86.1015C66.0168 88.2443 64.3258 90.2466 62.2184 92.1062L63.5416 93.6058C65.7862 91.6254 67.6152 89.4677 69.0175 87.1305L67.3025 86.1015ZM62.2199 92.1048C60.1819 93.8958 57.8951 95.3798 55.3555 96.5567L56.1965 98.3713C58.9049 97.1162 61.3541 95.5282 63.5401 93.6072L62.2199 92.1048ZM55.3555 96.5567C52.8347 97.7249 50.4823 98.288 48.288 98.288V100.288C50.8297 100.288 53.4693 99.6351 56.1965 98.3713L55.3555 96.5567ZM48.288 98.288C46.0303 98.288 44.3945 97.8585 43.2747 97.1119L42.1653 98.7761C43.7335 99.8215 45.8097 100.288 48.288 100.288V98.288ZM43.2747 97.1119C42.0847 96.3186 41.1417 95.2393 40.4464 93.8488L38.6576 94.7432C39.4983 96.4247 40.6673 97.7774 42.1653 98.7761L43.2747 97.1119ZM40.4464 93.8488C39.4464 91.8488 38.5623 87.885 37.8574 81.797L35.8706 82.027C36.5737 88.099 37.4816 92.3912 38.6576 94.7432L40.4464 93.8488ZM37.8575 81.7982C37.1536 75.6552 36.4425 71.2914 35.7126 68.7699L33.7914 69.3261C34.4695 71.6686 35.1664 75.8808 35.8705 82.0258L37.8575 81.7982ZM34.9408 68.066C33.4169 67.7729 32.0874 67.1916 30.936 66.328L29.736 67.928C31.1446 68.9844 32.7591 69.6831 34.5632 70.03L34.9408 68.066ZM30.9801 66.3631C29.9571 65.5016 29.512 64.5528 29.512 63.48H27.512C27.512 65.2232 28.2829 66.7064 29.6919 67.8929L30.9801 66.3631ZM29.512 63.48C29.512 62.8914 29.6387 62.4463 29.8472 62.1023C30.0547 61.76 30.3806 61.4557 30.8792 61.2064L29.9848 59.4176C29.2034 59.8083 28.5693 60.352 28.1368 61.0657C27.7053 61.7777 27.512 62.5966 27.512 63.48H29.512ZM30.8619 61.2149C32.0566 60.646 33.4111 60.352 34.944 60.352V58.352C33.1489 58.352 31.4955 58.698 30.0021 59.4091L30.8619 61.2149ZM34.944 60.352C36.504 60.352 37.8544 60.7252 39.0256 61.4503L40.0784 59.7497C38.5616 58.8108 36.84 58.352 34.944 58.352V60.352ZM40.1867 61.3727C42.0748 59.8218 43.5979 57.9955 44.7488 55.8968L42.9952 54.9352C41.9701 56.8045 40.6132 58.4342 38.9173 59.8273L40.1867 61.3727ZM44.7436 55.9063C46.009 53.6567 46.6 50.7483 46.6 47.256H44.6C44.6 50.5477 44.039 53.0793 43.0004 54.9257L44.7436 55.9063ZM46.6 47.256C46.6 43.5529 45.3531 40.5145 42.8084 38.2526L41.4796 39.7474C43.5429 41.5815 44.6 44.0471 44.6 47.256H46.6ZM42.8084 38.2526C40.2535 35.9816 36.5837 34.928 31.968 34.928V36.928C36.3123 36.928 39.4265 37.9224 41.4796 39.7474L42.8084 38.2526ZM31.968 34.928C27.5187 34.928 24.0131 35.2804 21.507 36.0255L22.077 37.9425C24.3069 37.2796 27.5853 36.928 31.968 36.928V34.928ZM21.507 36.0255C19.1017 36.7406 17.0016 37.5264 15.2142 38.387L16.0818 40.189C17.7504 39.3856 19.7463 38.6354 22.077 37.9425L21.507 36.0255ZM15.2008 38.3936C13.5324 39.2278 12.0226 39.9987 10.672 40.7062L11.6 42.4778C12.9374 41.7773 14.4356 41.0122 16.0952 40.1824L15.2008 38.3936ZM10.6541 40.7158C9.48296 41.3599 8.43219 41.648 7.488 41.648V43.648C8.84781 43.648 10.229 43.2321 11.6179 42.4682L10.6541 40.7158ZM7.488 41.648C7.2479 41.648 7.06549 41.6294 6.93161 41.6021C6.79646 41.5746 6.7332 41.5428 6.71345 41.5307C6.70034 41.5227 6.72405 41.5351 6.7459 41.5751C6.7667 41.6133 6.76 41.6293 6.76 41.592H4.76C4.76 42.2742 5.07009 42.8703 5.67055 43.2373C6.19085 43.5552 6.84269 43.648 7.488 43.648V41.648ZM6.76 41.592C6.76 41.4405 6.83016 41.1118 7.11043 40.5512C7.38021 40.0116 7.80136 39.3414 8.39139 38.534L6.77661 37.354C6.15064 38.2106 5.65979 38.9804 5.32157 39.6568C4.99384 40.3122 4.76 40.9755 4.76 41.592H6.76ZM8.39139 38.534C9.52264 36.986 11.2231 35.3947 13.5349 33.7702L12.3851 32.1338C9.96088 33.8373 8.07736 35.574 6.77661 37.354L8.39139 38.534ZM13.5329 33.7716C19.3089 29.7346 25.8244 27.7457 33.1115 27.808L33.1285 25.808C25.4396 25.7423 18.5151 27.8494 12.3871 32.1324L13.5329 33.7716ZM33.12 27.808C40.4886 27.808 46.4777 29.1941 51.147 31.8974L52.149 30.1666C47.0903 27.2378 40.7274 25.808 33.12 25.808V27.808ZM51.1435 31.8954C56.5293 35.0421 59.192 39.7035 59.192 46.008H61.192C61.192 39.0005 58.1587 33.6778 52.1525 30.1686L51.1435 31.8954ZM59.1921 46.0196C59.2539 51.3336 57.8672 55.6714 55.0938 59.108L56.6502 60.364C59.7648 56.5046 61.2581 51.6904 61.1919 45.9964L59.1921 46.0196ZM55.0938 59.108C52.2621 62.6168 48.7632 65.1326 44.5829 66.6694L45.2731 68.5466C49.7968 66.8834 53.5939 64.1512 56.6502 60.364L55.0938 59.108ZM44.0176 68.0218C44.9489 70.0705 45.6967 72.2807 46.2589 74.6545L48.2051 74.1935C47.6153 71.7033 46.8271 69.3695 45.8384 67.1942L44.0176 68.0218ZM46.2649 74.6785C46.9061 77.115 47.5156 79.3605 48.0934 81.4147L50.0187 80.8733C49.4444 78.8315 48.8379 76.597 48.1991 74.1695L46.2649 74.6785ZM48.0934 81.4147C48.6813 83.5052 49.3439 85.2714 50.0902 86.696L51.8618 85.768C51.2001 84.5046 50.5827 82.8788 50.0187 80.8733L48.0934 81.4147ZM50.1078 86.7281C50.9549 88.2106 52.1185 89.248 53.664 89.248V87.248C53.1615 87.248 52.5331 86.9414 51.8442 85.7359L50.1078 86.7281ZM53.664 89.248C55.1044 89.248 56.6114 88.4584 58.1409 87.195L56.8671 85.653C55.4526 86.8216 54.3996 87.248 53.664 87.248V89.248ZM58.1442 87.1922C59.7043 85.8921 61.2306 84.4956 62.7231 83.0031L61.3089 81.5889C59.8574 83.0404 58.3757 84.3959 56.8638 85.6558L58.1442 87.1922ZM62.7231 83.0031C64.2 81.5262 65.5185 80.1756 66.678 78.9517L65.2261 77.5763C64.0815 78.7844 62.776 80.1218 61.3089 81.5889L62.7231 83.0031ZM66.677 78.9527C67.267 78.3317 67.7417 77.8983 68.1072 77.6276C68.5214 77.3207 68.6368 77.344 68.544 77.344V75.344C67.9392 75.344 67.3666 75.6873 66.9168 76.0204C66.4183 76.3897 65.853 76.9163 65.227 77.5753L66.677 78.9527ZM26.784 42.784C26.7517 42.784 26.7 42.7654 26.6729 42.7418C26.6656 42.7354 26.718 42.7794 26.786 42.9571C26.9274 43.3271 27.032 43.995 27.032 45.048H29.032C29.032 43.925 28.9286 42.9609 28.6541 42.2429C28.514 41.8766 28.3064 41.5126 27.9871 41.2342C27.648 40.9386 27.2323 40.784 26.784 40.784V42.784ZM27.032 45.048C27.032 47.1851 26.9063 49.1886 26.6568 51.0598L28.6392 51.3242C28.9017 49.3554 29.032 47.2629 29.032 45.048H27.032ZM26.6598 51.0387C26.0891 54.7164 25.3611 58.1331 24.477 61.2904L26.403 61.8296C27.3109 58.5868 28.0549 55.0916 28.6362 51.3453L26.6598 51.0387ZM24.4733 61.3041C23.3201 65.6607 22.4526 69.122 21.8727 71.6832C21.304 74.195 20.984 75.9533 20.984 76.824H22.984C22.984 76.2227 23.24 74.701 23.8233 72.1248C24.3954 69.598 25.2559 66.1633 26.4067 61.8159L24.4733 61.3041ZM20.984 76.824V90.936H22.984V76.824H20.984ZM20.984 90.936C20.984 92.5403 20.6794 93.8192 20.1253 94.8194C19.5767 95.8095 18.7523 96.5838 17.6096 97.1412L18.4864 98.9388C19.9677 98.2162 21.1113 97.1665 21.8747 95.7886C22.6326 94.4208 22.984 92.7877 22.984 90.936H20.984ZM17.6199 97.1363C16.4107 97.709 15.234 98.2497 14.0899 98.7582L14.9021 100.586C16.062 100.07 17.2533 99.523 18.4761 98.9437L17.6199 97.1363ZM14.0702 98.7672C13.1363 99.2067 12.0378 99.44 10.752 99.44V101.44C12.2822 101.44 13.6797 101.161 14.9218 100.577L14.0702 98.7672ZM10.752 99.44C10.2848 99.44 9.91293 99.3115 9.59404 99.0686C9.262 98.8156 8.93328 98.396 8.64416 97.7352C8.05604 96.3909 7.72 94.2539 7.72 91.224H5.72C5.72 94.3381 6.05596 96.8091 6.81184 98.5368C7.19472 99.412 7.706 100.144 8.38196 100.659C9.07107 101.184 9.87521 101.44 10.752 101.44V99.44ZM7.72 91.224C7.72 85.1557 9.13037 77.4544 11.9962 68.0927L10.0838 67.5073C7.18963 76.9616 5.72 84.8763 5.72 91.224H7.72ZM11.9962 68.0927C14.8652 58.7207 17.8418 51.6507 20.9077 46.8329L19.2203 45.7591C16.0142 50.7973 12.9748 58.0633 10.0838 67.5073L11.9962 68.0927ZM20.8961 46.8507C21.4681 45.9926 22.3232 45.0692 23.4921 44.0849L22.2039 42.5551C20.9408 43.6187 19.9399 44.6794 19.232 45.7413L20.8961 46.8507ZM23.4921 44.0849C24.5526 43.1919 25.6422 42.784 26.784 42.784V40.784C25.1098 40.784 23.5754 41.4001 22.2039 42.5551L23.4921 44.0849ZM139.697 86.616L140.554 87.1305L140.56 87.1199L139.697 86.616ZM134.417 92.856L135.077 93.6072L135.078 93.6058L134.417 92.856ZM127.312 97.464L126.892 96.5567L126.892 96.5567L127.312 97.464ZM111.761 96.504L110.954 97.0954L110.965 97.1106L110.977 97.1254L111.761 96.504ZM113.969 69.144L114.921 69.45L115.322 68.2019L114.012 68.1449L113.969 69.144ZM93.3285 68.568V67.568H92.4776L92.3414 68.4079L93.3285 68.568ZM87.6645 98.04L88.0926 98.9438L88.1029 98.9388L87.6645 98.04ZM84.1125 99.672L83.7064 98.7582L83.6965 98.7626L83.6867 98.7672L84.1125 99.672ZM79.6965 69.624L80.6567 69.9032L81.0762 68.4608L79.5836 68.6304L79.6965 69.624ZM72.2085 70.584L72.063 69.5946L72.0587 69.5953L72.2085 70.584ZM70.0965 64.248L69.5695 63.3981L69.5619 63.4029L70.0965 64.248ZM83.0565 59.736L83.2415 60.7187L83.7848 60.6165L83.9871 60.102L83.0565 59.736ZM105.137 29.112L105.644 29.974L105.651 29.9695L105.137 29.112ZM115.312 26.232L115.322 25.232H115.312V26.232ZM129.137 31.416L128.367 32.0548L128.374 32.0632L129.137 31.416ZM133.457 44.952L132.456 44.952L132.457 44.9635L133.457 44.952ZM128.369 66.744L127.435 66.3841L127.431 66.3967L128.369 66.744ZM137.585 78.264L138.305 78.9571L138.317 78.9452L138.328 78.933L137.585 78.264ZM102.449 44.76L101.689 44.1092L101.688 44.1103L102.449 44.76ZM95.4405 58.968L94.4774 58.6988L94.1274 59.9507L95.4273 59.9679L95.4405 58.968ZM117.233 59.256L117.219 60.2559L117.965 60.2658L118.187 59.5543L117.233 59.256ZM140.081 77.344C140.102 77.344 140.102 77.3424 140.125 77.3626C140.168 77.4019 140.264 77.5176 140.367 77.7946C140.576 78.3611 140.713 79.3214 140.713 80.76H142.713C142.713 79.2546 142.577 78.0069 142.242 77.1013C142.073 76.6424 141.829 76.2061 141.464 75.8774C141.079 75.5296 140.603 75.344 140.081 75.344V77.344ZM140.713 80.76C140.713 82.1014 140.14 83.8705 138.833 86.1121L140.56 87.1199C141.941 84.7535 142.713 82.6186 142.713 80.76H140.713ZM138.839 86.1015C137.553 88.2443 135.862 90.2466 133.755 92.1062L135.078 93.6058C137.323 91.6254 139.152 89.4677 140.554 87.1305L138.839 86.1015ZM133.756 92.1048C131.718 93.8958 129.432 95.3798 126.892 96.5567L127.733 98.3713C130.441 97.1162 132.891 95.5282 135.077 93.6072L133.756 92.1048ZM126.892 96.5567C124.379 97.7213 121.962 98.288 119.633 98.288V100.288C122.295 100.288 124.998 99.6387 127.733 98.3713L126.892 96.5567ZM119.633 98.288C115.98 98.288 113.737 97.3864 112.544 95.8826L110.977 97.1254C112.728 99.3336 115.733 100.288 119.633 100.288V98.288ZM112.567 95.9126C111.336 94.2337 110.649 91.6937 110.649 88.152H108.649C108.649 91.9063 109.369 94.9343 110.954 97.0954L112.567 95.9126ZM110.649 88.152C110.649 84.6157 112.038 78.4173 114.921 69.45L113.016 68.838C110.139 77.7907 108.649 84.2643 108.649 88.152H110.649ZM114.012 68.1449C105.178 67.7609 98.7278 67.568 94.6725 67.568V69.568C98.6812 69.568 105.095 69.7591 113.925 70.1431L114.012 68.1449ZM94.6725 67.568H93.3285V69.568H94.6725V67.568ZM92.3414 68.4079C91.1801 75.5691 90.6005 83.0789 90.6005 90.936H92.6005C92.6005 83.1771 93.1729 75.7749 94.3156 68.7281L92.3414 68.4079ZM90.6005 90.936C90.6005 92.5403 90.2959 93.8192 89.7418 94.8194C89.1932 95.8095 88.3688 96.5838 87.2261 97.1412L88.1029 98.9388C89.5842 98.2162 90.7278 97.1665 91.4912 95.7886C92.2491 94.4208 92.6005 92.7877 92.6005 90.936H90.6005ZM87.2364 97.1363C86.0272 97.709 84.8505 98.2497 83.7064 98.7582L84.5186 100.586C85.6785 100.07 86.8698 99.523 88.0926 98.9437L87.2364 97.1363ZM83.6867 98.7672C82.7404 99.2125 81.703 99.44 80.5605 99.44V101.44C81.978 101.44 83.3086 101.155 84.5383 100.577L83.6867 98.7672ZM80.5605 99.44C79.9153 99.44 79.3983 99.2965 78.975 99.0425C78.5502 98.7876 78.1647 98.3884 77.8347 97.7944C77.1579 96.5761 76.7605 94.6202 76.7605 91.8H74.7605C74.7605 94.7398 75.1631 97.1039 76.0863 98.7656C76.5563 99.6116 77.1708 100.292 77.946 100.757C78.7227 101.223 79.6057 101.44 80.5605 101.44V99.44ZM76.7605 91.8C76.7605 86.175 78.0447 78.886 80.6567 69.9032L78.7363 69.3448C76.1003 78.41 74.7605 85.905 74.7605 91.8H76.7605ZM79.5836 68.6304C76.7596 68.9513 74.2524 69.2727 72.063 69.5946L72.354 71.5734C74.5166 71.2553 77.0014 70.9367 79.8094 70.6176L79.5836 68.6304ZM72.0587 69.5953C69.9652 69.9125 68.3585 70.064 67.2165 70.064V72.064C68.5065 72.064 70.2278 71.8955 72.3583 71.5727L72.0587 69.5953ZM67.2165 70.064C66.9536 70.064 66.7478 70.0465 66.5913 70.019C66.4324 69.9912 66.3487 69.9572 66.3142 69.9391C66.2847 69.9235 66.316 69.9331 66.3513 69.9889C66.368 70.0153 66.3794 70.0426 66.3861 70.067C66.3925 70.0907 66.3925 70.1045 66.3925 70.104H64.3925C64.3925 70.4288 64.4719 70.7594 64.6617 71.059C64.849 71.3549 65.1083 71.5645 65.3828 71.7089C65.9021 71.9822 66.5534 72.064 67.2165 72.064V70.064ZM66.3925 70.104C66.3925 68.748 67.5279 67.0563 70.6311 65.0931L69.5619 63.4029C66.3931 65.4077 64.3925 67.62 64.3925 70.104H66.3925ZM70.6234 65.0979C73.6816 63.2018 77.8709 61.7297 83.2415 60.7187L82.8715 58.7533C77.3621 59.7903 72.9114 61.3262 69.5696 63.3981L70.6234 65.0979ZM83.9871 60.102C89.9688 44.8934 97.2201 34.9289 105.644 29.9739L104.629 28.2501C95.6449 33.5351 88.1763 43.9866 82.1259 59.37L83.9871 60.102ZM105.651 29.9695C108.702 28.1387 111.917 27.232 115.312 27.232V25.232C111.54 25.232 107.971 26.2453 104.622 28.2545L105.651 29.9695ZM115.303 27.2319C121.545 27.2944 125.811 28.9763 128.367 32.0548L129.906 30.7772C126.83 27.0717 121.88 25.2976 115.322 25.232L115.303 27.2319ZM128.374 32.0632C131.064 35.2306 132.457 39.4924 132.457 44.952H134.457C134.457 39.1476 132.969 34.3854 129.899 30.7688L128.374 32.0632ZM132.457 44.9635C132.518 50.3445 130.874 57.4693 127.436 66.3841L129.302 67.1039C132.775 58.0987 134.523 50.6955 134.456 44.9405L132.457 44.9635ZM127.431 66.3967C126.152 69.8492 124.97 72.9808 123.884 75.7916L125.749 76.5124C126.839 73.6912 128.025 70.5508 129.306 67.0913L127.431 66.3967ZM123.884 75.7916C122.779 78.6498 122.185 81.0574 122.185 82.968H124.185C124.185 81.4226 124.678 79.2862 125.749 76.5124L123.884 75.7916ZM122.185 82.968C122.185 84.7241 122.312 86.1473 122.607 87.1787L124.53 86.6293C124.313 85.8687 124.185 84.6679 124.185 82.968H122.185ZM122.607 87.1787C122.781 87.7885 123.103 88.3336 123.623 88.7171C124.141 89.0984 124.757 89.248 125.393 89.248V87.248C125.068 87.248 124.9 87.1736 124.81 87.1069C124.722 87.0424 124.612 86.9155 124.53 86.6293L122.607 87.1787ZM125.393 89.248C126.098 89.248 126.866 88.9268 127.625 88.4911C128.415 88.0368 129.333 87.3752 130.37 86.5257C132.447 84.8246 135.095 82.2958 138.305 78.9571L136.864 77.5709C133.674 80.8882 131.09 83.3514 129.103 84.9783C128.108 85.7928 127.286 86.3792 126.628 86.7569C125.939 87.1532 125.551 87.248 125.393 87.248V89.248ZM138.328 78.933C138.885 78.3134 139.335 77.8836 139.682 77.6166C140.076 77.3141 140.181 77.344 140.081 77.344V75.344C139.468 75.344 138.901 75.6939 138.463 76.0314C137.978 76.4043 137.436 76.9346 136.841 77.595L138.328 78.933ZM120.633 47.736C120.633 44.8564 120.1 42.5146 118.874 40.8735C117.607 39.1776 115.718 38.384 113.393 38.384V40.384C115.227 40.384 116.458 40.9824 117.271 42.0705C118.125 43.2134 118.633 45.0476 118.633 47.736H120.633ZM113.393 38.384C108.84 38.384 104.926 40.3328 101.689 44.1092L103.208 45.4108C106.115 42.0192 109.497 40.384 113.393 40.384V38.384ZM101.688 44.1103C98.5598 47.7714 96.1681 52.6513 94.4774 58.6988L96.4036 59.2372C98.0409 53.3807 100.321 48.7886 103.209 45.4097L101.688 44.1103ZM95.4273 59.9679L117.219 60.2559L117.246 58.2561L95.4537 57.9681L95.4273 59.9679ZM118.187 59.5543C119.792 54.4194 120.633 50.457 120.633 47.736H118.633C118.633 50.135 117.873 53.8526 116.278 58.9577L118.187 59.5543ZM140.398 39.288L139.798 38.488L139.782 38.5007L139.765 38.514L140.398 39.288ZM138.191 40.92L137.636 40.0879L137.636 40.0879L138.191 40.92ZM138.959 30.456L139.524 31.2805L139.538 31.2714L139.551 31.2619L138.959 30.456ZM159.983 32.376L159.128 32.895L159.133 32.9033L159.138 32.9115L159.983 32.376ZM161.423 50.904L162.397 51.1274L162.398 51.123L161.423 50.904ZM159.119 60.408L158.149 60.161L158.147 60.17L158.145 60.179L159.119 60.408ZM156.911 70.392L157.889 70.599L157.89 70.5952L156.911 70.392ZM156.143 82.872L155.178 83.1351L155.183 83.1553L155.19 83.1752L156.143 82.872ZM171.887 84.504L171.339 83.6674L171.337 83.6688L171.887 84.504ZM185.711 56.376L186.701 56.5162L186.852 55.4446L185.772 55.3779L185.711 56.376ZM173.711 51.48L172.973 52.155L172.98 52.1632L172.988 52.1712L173.711 51.48ZM173.135 30.168L173.86 30.8563L173.86 30.8563L173.135 30.168ZM182.831 26.424V27.424H182.838L182.846 27.4239L182.831 26.424ZM192.047 30.648L191.232 31.2275L191.232 31.2275L192.047 30.648ZM195.023 46.776L194.027 46.6855L193.869 48.4242L195.448 47.6808L195.023 46.776ZM197.807 45.24L198.361 46.0721L198.384 46.0567L198.407 46.04L197.807 45.24ZM200.015 51.576L199.249 50.9328L199.246 50.9358L200.015 51.576ZM194.735 55.128L194.386 54.1906L193.787 54.4132L193.737 55.0507L194.735 55.128ZM191.567 74.04L190.619 73.7196L190.615 73.7322L191.567 74.04ZM186.958 84.888L186.093 84.3877L186.088 84.395L186.084 84.4024L186.958 84.888ZM180.719 92.472L181.364 93.2357L181.366 93.2339L180.719 92.472ZM146.255 95.064L145.6 95.8202L145.608 95.8269L145.616 95.8334L146.255 95.064ZM143.663 69.912L142.695 69.658L142.694 69.6648L143.663 69.912ZM147.599 54.36L148.571 54.5916L148.572 54.5882L147.599 54.36ZM142.607 37.656L142.052 36.8239L142.035 36.8353L142.018 36.8473L142.607 37.656ZM186.575 46.488L186.092 47.3638L187.461 48.118L187.572 46.5592L186.575 46.488ZM183.887 34.776L183.839 35.7749L183.863 35.776H183.887V34.776ZM139.765 38.514C139.087 39.0691 138.377 39.5938 137.636 40.0879L138.745 41.752C139.54 41.2222 140.302 40.6589 141.032 40.062L139.765 38.514ZM137.636 40.0879C137.05 40.4786 136.352 40.688 135.503 40.688V42.688C136.701 42.688 137.795 42.3854 138.745 41.752L137.636 40.0879ZM135.503 40.688C135.417 40.688 135.39 40.6705 135.387 40.6685C135.382 40.6656 135.347 40.6444 135.297 40.5544C135.18 40.3441 135.062 39.9002 135.062 39.096H133.062C133.062 40.0198 133.185 40.8719 133.548 41.5256C133.738 41.8676 134.003 42.1704 134.358 42.3835C134.715 42.5975 135.108 42.688 135.503 42.688V40.688ZM135.062 39.096C135.062 35.9507 136.493 33.3611 139.524 31.2805L138.393 29.6315C134.896 32.0309 133.062 35.2012 133.062 39.096H135.062ZM139.551 31.2619C142.495 29.0988 146.025 28 150.191 28V26C145.652 26 141.694 27.2052 138.366 29.6501L139.551 31.2619ZM150.191 28C154.209 28 157.141 29.6232 159.128 32.895L160.837 31.857C158.472 27.9608 154.876 26 150.191 26V28ZM159.138 32.9115C160.693 35.3639 161.479 38.1516 161.479 41.304H163.479C163.479 37.8004 162.6 34.6361 160.827 31.8405L159.138 32.9115ZM161.479 41.304C161.479 44.4955 161.134 47.622 160.447 50.685L162.398 51.123C163.119 47.914 163.479 44.6405 163.479 41.304H161.479ZM160.448 50.6806C159.746 53.7442 158.98 56.9043 158.149 60.161L160.088 60.655C160.921 57.3837 161.691 54.2078 162.397 51.1274L160.448 50.6806ZM158.145 60.179C157.375 63.4518 156.637 66.7884 155.931 70.1888L157.89 70.5952C158.592 67.2116 159.326 63.8922 160.092 60.637L158.145 60.179ZM155.932 70.185C155.221 73.5476 154.855 76.375 154.855 78.648H156.855C156.855 76.569 157.192 73.8924 157.889 70.599L155.932 70.185ZM154.855 78.648C154.855 80.7402 154.945 82.2815 155.178 83.1351L157.107 82.6089C156.956 82.0545 156.855 80.7798 156.855 78.648H154.855ZM155.19 83.1752C155.709 84.8069 156.694 86.0699 158.137 86.9054C159.556 87.7266 161.347 88.096 163.439 88.096V86.096C161.562 86.096 160.153 85.7614 159.14 85.1746C158.151 84.6021 157.472 83.7531 157.095 82.5688L155.19 83.1752ZM163.439 88.096C166.651 88.096 169.657 87.1696 172.436 85.3392L171.337 83.6688C168.868 85.2944 166.242 86.096 163.439 86.096V88.096ZM172.434 85.3406C180.024 80.3702 184.701 70.6405 186.701 56.5162L184.72 56.2358C182.752 70.1435 178.213 79.1658 171.339 83.6674L172.434 85.3406ZM185.772 55.3779C180.768 55.069 177.031 53.5051 174.433 50.7888L172.988 52.1712C176.022 55.3429 180.285 57.043 185.649 57.3741L185.772 55.3779ZM174.448 50.805C171.903 48.0229 170.583 44.2528 170.583 39.384H168.583C168.583 44.6272 170.014 48.9211 172.973 52.155L174.448 50.805ZM170.583 39.384C170.583 35.9751 171.68 33.1545 173.86 30.8563L172.409 29.4797C169.853 32.1735 168.583 35.4969 168.583 39.384H170.583ZM173.86 30.8563C176.003 28.5969 178.952 27.424 182.831 27.424V25.424C178.517 25.424 175.002 26.7471 172.409 29.4797L173.86 30.8563ZM182.846 27.4239C186.673 27.3641 189.407 28.6616 191.232 31.2275L192.861 30.0685C190.59 26.8744 187.18 25.3559 182.815 25.4241L182.846 27.4239ZM191.232 31.2275C193.12 33.8833 194.119 37.5601 194.119 42.36H196.119C196.119 37.3039 195.069 33.1727 192.861 30.0685L191.232 31.2275ZM194.119 42.36V44.568H196.119V42.36H194.119ZM194.119 44.568C194.119 45.3083 194.088 46.014 194.027 46.6855L196.018 46.8665C196.085 46.13 196.119 45.3637 196.119 44.568H194.119ZM195.448 47.6808C196.568 47.1537 197.542 46.6182 198.361 46.0721L197.252 44.4079C196.535 44.8858 195.653 45.3743 194.597 45.8712L195.448 47.6808ZM198.407 46.04C199.045 45.5609 199.608 45.376 200.111 45.376V43.376C199.077 43.376 198.104 43.7671 197.207 44.44L198.407 46.04ZM200.111 45.376C200.632 45.376 200.837 45.4904 200.903 45.5459C200.937 45.5751 201.031 45.6645 201.031 46.008H203.031C203.031 45.2635 202.804 44.5369 202.198 44.0221C201.624 43.5336 200.869 43.376 200.111 43.376V45.376ZM201.031 46.008C201.031 47.8875 200.44 49.5151 199.249 50.9328L200.78 52.2192C202.277 50.4369 203.031 48.3525 203.031 46.008H201.031ZM199.246 50.9358C198.098 52.3138 196.495 53.4074 194.386 54.1906L195.083 56.0654C197.454 55.1845 199.371 53.9102 200.783 52.2162L199.246 50.9358ZM193.737 55.0507C193.1 63.2787 192.051 69.4853 190.619 73.7196L192.514 74.3604C194.026 69.8907 195.089 63.4893 195.732 55.2053L193.737 55.0507ZM190.615 73.7322C189.221 78.0402 187.711 81.5866 186.093 84.3877L187.824 85.3883C189.534 82.4294 191.096 78.7438 192.518 74.3478L190.615 73.7322ZM186.084 84.4024C184.544 87.1753 182.541 89.6102 180.071 91.7101L181.366 93.2339C184.016 90.9818 186.173 88.3607 187.833 85.3736L186.084 84.4024ZM180.073 91.7083C174.913 96.0695 168.214 98.288 159.887 98.288V100.288C168.583 100.288 175.772 97.9625 181.364 93.2357L180.073 91.7083ZM159.887 98.288C154.355 98.288 150.059 96.9226 146.893 94.2946L145.616 95.8334C149.234 98.8374 154.026 100.288 159.887 100.288V98.288ZM146.909 94.3078C143.877 91.6841 142.263 87.5013 142.263 81.528H140.263C140.263 87.8427 141.976 92.6839 145.6 95.8202L146.909 94.3078ZM142.263 81.528C142.263 80.9083 142.44 79.6671 142.842 77.7223C143.237 75.8078 143.833 73.2884 144.631 70.1592L142.694 69.6648C141.892 72.8076 141.288 75.3602 140.883 77.3177C140.485 79.2449 140.263 80.6757 140.263 81.528H142.263ZM144.63 70.166C146.295 63.8263 147.609 58.6341 148.571 54.5916L146.626 54.1284C145.668 58.1499 144.358 63.3257 142.695 69.658L144.63 70.166ZM148.572 54.5882C149.538 50.4655 150.039 47.1461 150.039 44.664H148.039C148.039 46.9179 147.579 50.0625 146.625 54.1318L148.572 54.5882ZM150.039 44.664C150.039 42.02 149.709 39.8869 148.947 38.3804C148.558 37.6128 148.042 36.9786 147.374 36.5388C146.701 36.0953 145.931 35.888 145.103 35.888V37.888C145.586 37.888 145.964 38.0047 146.275 38.2092C146.591 38.4174 146.895 38.7552 147.162 39.2836C147.712 40.3691 148.039 42.124 148.039 44.664H150.039ZM145.103 35.888C144.003 35.888 142.979 36.2059 142.052 36.8239L143.161 38.488C143.77 38.0821 144.41 37.888 145.103 37.888V35.888ZM142.018 36.8473C141.31 37.3624 140.57 37.9093 139.798 38.488L140.999 40.088C141.763 39.5146 142.495 38.9736 143.195 38.4647L142.018 36.8473ZM187.572 46.5592C187.702 44.7428 187.767 42.895 187.767 41.016H185.767C185.767 42.849 185.703 44.6492 185.577 46.4167L187.572 46.5592ZM187.767 41.016C187.767 38.8905 187.526 37.1556 186.954 35.9169C186.663 35.285 186.266 34.741 185.732 34.3553C185.188 33.9621 184.559 33.776 183.887 33.776V35.776C184.174 35.776 184.385 35.8499 184.561 35.9767C184.747 36.111 184.95 36.347 185.139 36.7551C185.527 37.5963 185.767 38.9814 185.767 41.016H187.767ZM183.934 33.7771C182.936 33.7296 182.077 34.1256 181.531 34.9831C181.042 35.7509 180.871 36.7892 180.871 37.944H182.871C182.871 36.9228 183.035 36.3451 183.218 36.0569C183.344 35.8584 183.493 35.7584 183.839 35.7749L183.934 33.7771ZM180.871 37.944C180.871 42.2283 182.597 45.4379 186.092 47.3638L187.057 45.6122C184.28 44.0821 182.871 41.5957 182.871 37.944H180.871ZM257.254 79.512H258.254V79.5049L258.254 79.4977L257.254 79.512ZM263.206 86.424L262.552 85.6672L262.552 85.6672L263.206 86.424ZM267.43 82.488L268.137 83.1951L268.145 83.1873L268.152 83.1792L267.43 82.488ZM271.27 78.456L270.563 77.7489L270.553 77.7584L270.544 77.7683L271.27 78.456ZM268.294 92.952L267.613 92.2196L267.608 92.2244L268.294 92.952ZM253.894 99.288V98.288H253.884L253.874 98.2882L253.894 99.288ZM247.366 95.16L246.437 95.5314L246.44 95.5386L247.366 95.16ZM246.022 84.408H247.022L245.104 84.0112L246.022 84.408ZM213.286 95.064L212.631 95.8202L212.639 95.8269L212.647 95.8334L213.286 95.064ZM210.694 69.912L209.727 69.658L209.725 69.6648L210.694 69.912ZM214.63 54.36L215.603 54.5916L215.603 54.5882L214.63 54.36ZM209.638 37.656L209.083 36.8239L209.066 36.8353L209.05 36.8473L209.638 37.656ZM207.43 39.288L206.83 38.488L206.813 38.5007L206.797 38.514L207.43 39.288ZM205.222 40.92L204.667 40.0879L204.667 40.0879L205.222 40.92ZM205.99 30.456L206.556 31.2805L206.569 31.2714L206.582 31.2619L205.99 30.456ZM227.014 32.376L226.159 32.895L226.164 32.9033L226.169 32.9115L227.014 32.376ZM228.454 50.904L229.428 51.1274L229.429 51.123L228.454 50.904ZM226.15 60.408L225.181 60.161L225.178 60.17L225.176 60.179L226.15 60.408ZM223.942 70.392L224.92 70.599L224.921 70.5952L223.942 70.392ZM223.174 82.872L222.209 83.1351L222.214 83.1553L222.221 83.1752L223.174 82.872ZM241.414 78.648L240.554 78.1369L240.553 78.1393L241.414 78.648ZM247.366 61.368L248.352 61.5354L248.355 61.5178L248.357 61.5002L247.366 61.368ZM247.942 57.048L248.933 57.1802L248.943 57.1048L248.942 57.0289L247.942 57.048ZM247.558 36.984H246.558V36.9936L246.558 37.0031L247.558 36.984ZM251.398 29.688L250.798 28.888L250.798 28.888L251.398 29.688ZM259.462 26.904L259.439 27.9037L259.45 27.904H259.462V26.904ZM261.67 29.496L260.686 29.6781L260.688 29.6848L261.67 29.496ZM261.766 41.016L262.756 41.1526L262.757 41.1482L261.766 41.016ZM260.806 47.544L259.817 47.3919L259.816 47.4027L259.814 47.4135L260.806 47.544ZM259.654 55.416L258.666 55.2589L258.665 55.2663L258.664 55.2738L259.654 55.416ZM256.254 79.512C256.254 82.4469 256.453 84.74 256.889 86.3289C257.107 87.1205 257.405 87.8194 257.832 88.338C258.284 88.8866 258.9 89.248 259.654 89.248V87.248C259.607 87.248 259.523 87.2454 259.375 87.066C259.203 86.8566 259.001 86.4635 258.818 85.7991C258.455 84.476 258.254 82.4011 258.254 79.512H256.254ZM259.654 89.248C260.995 89.248 262.417 88.4266 263.859 87.1808L262.552 85.6672C261.179 86.8534 260.233 87.248 259.654 87.248V89.248ZM263.859 87.1808C265.287 85.9478 266.713 84.6191 268.137 83.1951L266.723 81.7809C265.331 83.1729 263.94 84.4682 262.552 85.6672L263.859 87.1808ZM268.152 83.1792C269.561 81.7063 270.842 80.3611 271.996 79.1437L270.544 77.7683C269.393 78.9829 268.114 80.3257 266.707 81.7968L268.152 83.1792ZM271.977 79.1631C272.569 78.5709 273.04 78.1557 273.396 77.8954C273.574 77.7653 273.702 77.6893 273.787 77.6493C273.882 77.6039 273.864 77.632 273.766 77.632V75.632C273.444 75.632 273.153 75.7361 272.929 75.8427C272.693 75.9547 272.454 76.1067 272.216 76.2806C271.74 76.6283 271.186 77.1251 270.563 77.7489L271.977 79.1631ZM273.766 77.632C273.77 77.632 273.741 77.6269 273.725 77.6132C273.724 77.6127 273.779 77.6582 273.849 77.8287C273.997 78.189 274.11 78.8467 274.11 79.896H276.11C276.11 78.7693 275.998 77.795 275.698 77.0672C275.545 76.6938 275.32 76.3313 274.983 76.0588C274.63 75.7731 274.21 75.632 273.766 75.632V77.632ZM274.11 79.896C274.11 84.0043 272.034 88.1097 267.613 92.2196L268.975 93.6844C273.641 89.3463 276.11 84.7477 276.11 79.896H274.11ZM267.608 92.2244C263.273 96.311 258.709 98.288 253.894 98.288V100.288C259.319 100.288 264.354 98.041 268.98 93.6796L267.608 92.2244ZM253.874 98.2882C252.422 98.3172 251.282 98.0191 250.396 97.4588C249.514 96.901 248.803 96.0329 248.291 94.7814L246.44 95.5386C247.08 97.1031 248.033 98.331 249.327 99.1492C250.617 99.9649 252.166 100.323 253.914 100.288L253.874 98.2882ZM248.294 94.7886C247.473 92.7355 247.022 89.3135 247.022 84.408H245.022C245.022 89.3585 245.467 93.1045 246.437 95.5314L248.294 94.7886ZM245.104 84.0112C243.005 88.8673 240.429 92.4313 237.415 94.7791C234.415 97.1156 230.93 98.288 226.918 98.288V100.288C231.353 100.288 235.276 98.9804 238.644 96.3569C241.998 93.7447 244.751 89.8687 246.94 84.8048L245.104 84.0112ZM226.918 98.288C221.386 98.288 217.09 96.9226 213.925 94.2946L212.647 95.8334C216.265 98.8374 221.058 100.288 226.918 100.288V98.288ZM213.94 94.3078C210.908 91.6841 209.294 87.5013 209.294 81.528H207.294C207.294 87.8427 209.007 92.6839 212.631 95.8202L213.94 94.3078ZM209.294 81.528C209.294 80.9083 209.471 79.6671 209.873 77.7223C210.269 75.8078 210.864 73.2884 211.663 70.1592L209.725 69.6648C208.923 72.8076 208.319 75.3602 207.914 77.3177C207.516 79.2449 207.294 80.6757 207.294 81.528H209.294ZM211.661 70.166C213.326 63.8263 214.64 58.6341 215.603 54.5916L213.657 54.1284C212.699 58.1499 211.39 63.3257 209.727 69.658L211.661 70.166ZM215.603 54.5882C216.57 50.4655 217.07 47.1461 217.07 44.664H215.07C215.07 46.9179 214.61 50.0625 213.656 54.1318L215.603 54.5882ZM217.07 44.664C217.07 42.02 216.741 39.8869 215.978 38.3804C215.589 37.6128 215.074 36.9786 214.406 36.5388C213.732 36.0953 212.962 35.888 212.134 35.888V37.888C212.617 37.888 212.995 38.0047 213.306 38.2092C213.622 38.4174 213.926 38.7552 214.194 39.2836C214.743 40.3691 215.07 42.124 215.07 44.664H217.07ZM212.134 35.888C211.034 35.888 210.01 36.2059 209.083 36.8239L210.192 38.488C210.801 38.0821 211.441 37.888 212.134 37.888V35.888ZM209.05 36.8473C208.341 37.3624 207.601 37.9093 206.83 38.488L208.03 40.088C208.794 39.5146 209.526 38.9736 210.226 38.4647L209.05 36.8473ZM206.797 38.514C206.118 39.0691 205.408 39.5938 204.667 40.0879L205.776 41.752C206.571 41.2222 207.333 40.6589 208.063 40.062L206.797 38.514ZM204.667 40.0879C204.081 40.4786 203.383 40.688 202.534 40.688V42.688C203.733 42.688 204.826 42.3854 205.776 41.752L204.667 40.0879ZM202.534 40.688C202.449 40.688 202.422 40.6705 202.418 40.6685C202.413 40.6656 202.378 40.6444 202.328 40.5544C202.211 40.3441 202.094 39.9002 202.094 39.096H200.094C200.094 40.0198 200.216 40.8719 200.58 41.5256C200.77 41.8676 201.034 42.1704 201.389 42.3835C201.746 42.5975 202.139 42.688 202.534 42.688V40.688ZM202.094 39.096C202.094 35.9507 203.524 33.3611 206.556 31.2805L205.424 29.6315C201.928 32.0309 200.094 35.2012 200.094 39.096H202.094ZM206.582 31.2619C209.526 29.0988 213.056 28 217.222 28V26C212.683 26 208.725 27.2052 205.398 29.6501L206.582 31.2619ZM217.222 28C221.241 28 224.173 29.6232 226.159 32.895L227.869 31.857C225.503 27.9608 221.907 26 217.222 26V28ZM226.169 32.9115C227.724 35.3639 228.51 38.1516 228.51 41.304H230.51C230.51 37.8004 229.631 34.6361 227.858 31.8405L226.169 32.9115ZM228.51 41.304C228.51 44.4955 228.166 47.622 227.478 50.685L229.429 51.123C230.15 47.914 230.51 44.6405 230.51 41.304H228.51ZM227.479 50.6806C226.777 53.7442 226.011 56.9043 225.181 60.161L227.119 60.655C227.953 57.3837 228.723 54.2078 229.428 51.1274L227.479 50.6806ZM225.176 60.179C224.406 63.4518 223.668 66.7884 222.963 70.1888L224.921 70.5952C225.623 67.2116 226.357 63.8922 227.123 60.637L225.176 60.179ZM222.963 70.185C222.252 73.5476 221.886 76.375 221.886 78.648H223.886C223.886 76.569 224.223 73.8924 224.92 70.599L222.963 70.185ZM221.886 78.648C221.886 80.7402 221.976 82.2815 222.209 83.1351L224.139 82.6089C223.987 82.0545 223.886 80.7798 223.886 78.648H221.886ZM222.221 83.1752C222.729 84.7713 223.625 86.0322 224.934 86.8796C226.23 87.7179 227.844 88.096 229.702 88.096V86.096C228.104 86.096 226.901 85.7701 226.021 85.2004C225.155 84.6398 224.515 83.7887 224.127 82.5688L222.221 83.1752ZM229.702 88.096C234.683 88.096 238.857 84.9398 242.275 79.1567L240.553 78.1393C237.314 83.6202 233.68 86.096 229.702 86.096V88.096ZM242.273 79.1591C245.166 74.2946 247.184 68.4117 248.352 61.5354L246.38 61.2006C245.244 67.8923 243.294 73.5294 240.554 78.1369L242.273 79.1591ZM248.357 61.5002L248.933 57.1802L246.951 56.9158L246.375 61.2358L248.357 61.5002ZM248.942 57.0289L248.558 36.9649L246.558 37.0031L246.942 57.0671L248.942 57.0289ZM248.558 36.984C248.558 34.3852 249.664 32.2382 251.998 30.488L250.798 28.888C248.011 30.9778 246.558 33.6948 246.558 36.984H248.558ZM251.998 30.488C254.404 28.6832 256.877 27.8455 259.439 27.9037L259.484 25.9043C256.414 25.8345 253.511 26.8528 250.798 28.888L251.998 30.488ZM259.462 27.904C259.75 27.904 259.942 27.9953 260.117 28.2005C260.325 28.4453 260.542 28.9 260.686 29.6781L262.653 29.3139C262.477 28.364 262.166 27.5227 261.639 26.9035C261.078 26.2447 260.326 25.904 259.462 25.904V27.904ZM260.688 29.6848C260.994 31.2753 261.15 33.0668 261.15 35.064H263.15C263.15 32.9652 262.986 31.0447 262.652 29.3071L260.688 29.6848ZM261.15 35.064C261.15 37.0703 261.024 39.0101 260.775 40.8838L262.757 41.1482C263.019 39.1819 263.15 37.1537 263.15 35.064H261.15ZM260.775 40.8794C260.52 42.7288 260.201 44.8994 259.817 47.3919L261.794 47.6961C262.179 45.1966 262.499 43.0152 262.756 41.1526L260.775 40.8794ZM259.814 47.4135C259.496 49.8354 259.113 52.4504 258.666 55.2589L260.641 55.5731C261.091 52.7496 261.476 50.1166 261.797 47.6745L259.814 47.4135ZM258.664 55.2738C257.001 66.8528 256.189 74.9575 256.254 79.5263L258.254 79.4977C258.191 75.1065 258.979 67.1472 260.644 55.5582L258.664 55.2738ZM298.285 94.776L297.285 94.768V94.776H298.285ZM284.365 98.04L283.376 98.1921L283.38 98.2142L283.384 98.2361L284.365 98.04ZM284.461 84.12L283.47 83.9849L283.469 83.9947L283.467 84.0045L284.461 84.12ZM285.901 75L286.886 75.1738L286.886 75.1709L285.901 75ZM290.509 54.744L289.546 54.4737L289.544 54.4794L290.509 54.744ZM296.557 37.848L297.451 38.2952L298.229 36.7398L296.493 36.85L296.557 37.848ZM284.557 40.056L284.836 41.0163L284.843 41.0143L284.85 41.0121L284.557 40.056ZM276.109 42.552L276.369 43.5176L276.386 43.513L276.403 43.5078L276.109 42.552ZM272.269 38.52L273.05 39.1447L273.056 39.1373L273.061 39.1297L272.269 38.52ZM277.741 33.528L277.178 32.7014L277.172 32.7056L277.166 32.7098L277.741 33.528ZM297.805 27.288L297.814 26.288L297.805 26.288L297.796 26.288L297.805 27.288ZM329.389 27.576L329.38 28.576H329.389V27.576ZM331.213 31.704L332.095 32.1746L332.101 32.163L332.107 32.1512L331.213 31.704ZM329.869 34.872L330.809 35.2116L330.814 35.2L330.817 35.1882L329.869 34.872ZM305.677 37.752L305.715 36.7527L304.767 36.7163L304.681 37.6615L305.677 37.752ZM304.141 48.6L305.126 48.7738L305.126 48.7713L304.141 48.6ZM301.645 62.904L300.659 62.7337L300.658 62.7419L301.645 62.904ZM297.285 94.776C297.285 95.5502 297.099 96.1821 296.756 96.7092C296.41 97.2413 295.868 97.7241 295.068 98.1343C293.44 98.9694 290.872 99.44 287.245 99.44V101.44C290.978 101.44 293.929 100.967 295.981 99.9137C297.022 99.3799 297.859 98.6827 298.433 97.7988C299.011 96.9099 299.285 95.8898 299.285 94.776H297.285ZM287.245 99.44C286.612 99.44 286.22 99.2841 285.965 99.0718C285.708 98.8575 285.474 98.489 285.345 97.8439L283.384 98.2361C283.575 99.191 283.982 100.022 284.685 100.608C285.39 101.196 286.278 101.44 287.245 101.44V99.44ZM285.353 97.8879C285.107 96.291 284.981 94.2974 284.981 91.896H282.981C282.981 94.3586 283.11 96.461 283.376 98.1921L285.353 97.8879ZM284.981 91.896C284.981 89.5075 285.138 86.9543 285.454 84.2355L283.467 84.0045C283.144 86.7897 282.981 89.4205 282.981 91.896H284.981ZM285.452 84.2551C285.834 81.4539 286.311 78.427 286.886 75.1738L284.916 74.8262C284.338 78.101 283.856 81.154 283.47 83.9849L285.452 84.2551ZM286.886 75.1709C287.968 68.9354 289.496 62.215 291.473 55.0086L289.544 54.4794C287.553 61.737 286.01 68.5206 284.915 74.8291L286.886 75.1709ZM291.472 55.0143C293.513 47.743 295.508 42.1806 297.451 38.2952L295.662 37.4008C293.637 41.4514 291.601 47.153 289.546 54.4737L291.472 55.0143ZM296.493 36.85C292.381 37.1111 288.304 37.8616 284.264 39.0999L284.85 41.0121C288.745 39.8184 292.668 39.0969 296.62 38.846L296.493 36.85ZM284.278 39.0957C280.31 40.2477 277.487 41.0816 275.815 41.5962L276.403 43.5078C278.058 42.9984 280.868 42.1683 284.836 41.0163L284.278 39.0957ZM275.849 41.5864C274.226 42.0232 272.945 42.224 271.981 42.224V44.224C273.192 44.224 274.663 43.9768 276.369 43.5176L275.849 41.5864ZM271.981 42.224C271.76 42.224 271.595 42.2058 271.478 42.1805C271.359 42.155 271.31 42.1268 271.3 42.1204C271.297 42.1184 271.321 42.1349 271.34 42.172C271.357 42.2057 271.349 42.2141 271.349 42.168H269.349C269.349 42.8243 269.629 43.4211 270.213 43.7996C270.723 44.1295 271.361 44.224 271.981 44.224V42.224ZM271.349 42.168C271.349 41.9873 271.426 41.6448 271.714 41.0977C271.994 40.566 272.432 39.9167 273.05 39.1447L271.488 37.8953C270.826 38.7233 270.304 39.482 269.944 40.1663C269.592 40.8352 269.349 41.5167 269.349 42.168H271.349ZM273.061 39.1297C274.261 37.5697 276.001 35.9724 278.316 34.3462L277.166 32.7098C274.744 34.4116 272.836 36.1423 271.476 37.9103L273.061 39.1297ZM278.304 34.3546C284.154 30.3712 290.649 28.3503 297.813 28.288L297.796 26.288C290.241 26.3537 283.359 28.4928 277.178 32.7014L278.304 34.3546ZM297.796 28.288L329.38 28.576L329.398 26.576L297.814 26.288L297.796 28.288ZM329.389 28.576C330.151 28.576 330.538 28.7289 330.719 28.8694C330.852 28.9727 330.981 29.1506 330.981 29.592H332.981C332.981 28.6894 332.678 27.8593 331.947 27.2906C331.263 26.7591 330.355 26.576 329.389 26.576V28.576ZM330.981 29.592C330.981 29.5847 330.981 29.6193 330.959 29.711C330.939 29.7984 330.904 29.9156 330.849 30.0663C330.739 30.3688 330.565 30.7632 330.318 31.2568L332.107 32.1512C332.372 31.6208 332.583 31.1512 332.729 30.7497C332.866 30.3719 332.981 29.9649 332.981 29.592H330.981ZM330.33 31.2334C329.789 32.2482 329.32 33.3566 328.92 34.5558L330.817 35.1882C331.186 34.0834 331.612 33.0798 332.095 32.1746L330.33 31.2334ZM328.928 34.5324C328.573 35.5153 328.047 36.1888 327.377 36.6273C326.7 37.0707 325.792 37.328 324.589 37.328V39.328C326.074 39.328 327.39 39.0093 328.472 38.3007C329.563 37.5872 330.332 36.5327 330.809 35.2116L328.928 34.5324ZM324.589 37.328C321.988 37.328 315.706 37.137 305.715 36.7527L305.638 38.7513C315.616 39.135 321.941 39.328 324.589 39.328V37.328ZM304.681 37.6615C304.428 40.4395 303.921 44.0259 303.156 48.4287L305.126 48.7713C305.896 44.3421 306.413 40.6965 306.673 37.8425L304.681 37.6615ZM303.156 48.4262C302.388 52.7796 301.556 57.5487 300.659 62.7337L302.63 63.0743C303.526 57.8913 304.358 53.1244 305.126 48.7738L303.156 48.4262ZM300.658 62.7419C298.478 76.0117 297.349 86.6934 297.285 94.768L299.285 94.784C299.348 86.8586 300.459 76.2923 302.632 63.0661L300.658 62.7419ZM355.577 58.968L354.619 58.6812L354.234 59.968H355.577V58.968ZM374.393 59.16L374.371 60.1598L375.172 60.1775L375.364 59.4001L374.393 59.16ZM383.225 33.816L382.405 33.2438L382.387 33.2696L382.371 33.2964L383.225 33.816ZM388.985 27.864L389.52 28.7088L389.53 28.7025L389.54 28.696L388.985 27.864ZM391.865 38.712L390.878 38.5513L390.876 38.5625L390.875 38.5738L391.865 38.712ZM390.329 48.216L391.314 48.3925L391.314 48.3918L390.329 48.216ZM385.529 76.44L384.541 76.2873L384.54 76.2961L385.529 76.44ZM371.897 97.176L371.161 97.8531L371.168 97.8606L371.175 97.8679L371.897 97.176ZM372.185 69.048L373.168 69.2319L373.38 68.1013L372.231 68.049L372.185 69.048ZM352.793 68.664L352.703 67.6681L352.004 67.7317L351.826 68.4109L352.793 68.664ZM334.553 98.04L333.565 98.1921L333.568 98.2142L333.573 98.2361L334.553 98.04ZM337.625 70.2L338.597 70.4349L338.945 68.9944L337.479 69.2107L337.625 70.2ZM330.905 65.304L330.258 64.5415L330.252 64.5464L330.247 64.5514L330.905 65.304ZM340.121 60.984L340.382 61.9495L340.926 61.8027L341.082 61.2617L340.121 60.984ZM347.225 40.824L348.137 41.2353L348.787 39.7949L347.207 39.8242L347.225 40.824ZM331.961 44.856L332.561 45.656L332.57 45.6495L332.578 45.6429L331.961 44.856ZM329.465 46.968L330.134 47.7113L330.154 47.6937L330.172 47.6751L329.465 46.968ZM326.393 46.68L325.529 47.1839L325.529 47.1839L326.393 46.68ZM337.529 32.952L337.237 31.9958L337.234 31.9966L337.529 32.952ZM359.417 29.976V28.976L359.41 28.976L359.417 29.976ZM361.433 30.744L360.879 31.576L360.894 31.5861L360.909 31.5957L361.433 30.744ZM362.009 37.176L361.053 36.8848L361.048 36.8988L361.044 36.9129L362.009 37.176ZM360.377 40.344L359.67 39.6369L359.429 39.8785L359.385 40.2174L360.377 40.344ZM355.577 59.968C362.355 59.968 368.62 60.0319 374.371 60.1598L374.415 58.1602C368.647 58.0321 362.367 57.968 355.577 57.968V59.968ZM375.364 59.4001C378.37 47.2464 381.286 38.9299 384.08 34.3356L382.371 33.2964C379.405 38.1741 376.432 46.7536 373.423 58.9199L375.364 59.4001ZM384.045 34.3882C385.922 31.6978 387.753 29.8283 389.52 28.7088L388.45 27.0192C386.378 28.3317 384.368 30.4302 382.405 33.2438L384.045 34.3882ZM389.54 28.696C390.177 28.2711 390.756 28.096 391.289 28.096V26.096C390.287 26.096 389.329 26.4329 388.431 27.0319L389.54 28.696ZM391.289 28.096C391.041 28.096 391.112 27.8549 391.277 28.3482C391.432 28.8159 391.537 29.6212 391.537 30.84H393.537C393.537 29.5628 393.434 28.4961 393.174 27.7158C392.922 26.9611 392.37 26.096 391.289 26.096V28.096ZM391.537 30.84C391.537 33.2764 391.319 35.8464 390.878 38.5513L392.852 38.8727C393.308 36.0736 393.537 33.3956 393.537 30.84H391.537ZM390.875 38.5738C390.493 41.3101 389.983 44.4651 389.345 48.0402L391.314 48.3918C391.955 44.7989 392.469 41.6179 392.856 38.8502L390.875 38.5738ZM389.345 48.0395C387.232 59.8189 385.631 69.2358 384.541 76.2873L386.518 76.5927C387.604 69.5642 389.202 60.1651 391.314 48.3925L389.345 48.0395ZM384.54 76.2961C383.509 83.3795 382.993 90.2118 382.993 96.792H384.993C384.993 90.3162 385.501 83.5805 386.519 76.5839L384.54 76.2961ZM382.993 96.792C382.993 97.417 382.79 97.7575 382.46 97.9888C382.064 98.2655 381.347 98.48 380.153 98.48V100.48C381.519 100.48 382.722 100.246 383.607 99.6272C384.556 98.9625 384.993 97.959 384.993 96.792H382.993ZM380.153 98.48C376.175 98.48 373.792 97.7074 372.619 96.4841L371.175 97.8679C372.947 99.7166 376.067 100.48 380.153 100.48V98.48ZM372.633 96.4989C371.428 95.1895 370.689 92.673 370.689 88.632H368.689C368.689 92.783 369.422 95.9625 371.161 97.8531L372.633 96.4989ZM370.689 88.632C370.689 84.5711 371.506 78.1207 373.168 69.2319L371.202 68.8641C369.537 77.7673 368.689 84.3729 368.689 88.632H370.689ZM372.231 68.049C365.198 67.7294 360.725 67.568 358.841 67.568V69.568C360.67 69.568 365.092 69.7266 372.14 70.047L372.231 68.049ZM358.841 67.568H354.905V69.568H358.841V67.568ZM354.905 67.568C354.171 67.568 353.437 67.6014 352.703 67.6681L352.884 69.6599C353.558 69.5986 354.232 69.568 354.905 69.568V67.568ZM351.826 68.4109C348.938 79.4481 347.473 88.249 347.473 94.776H349.473C349.473 88.503 350.888 79.8959 353.761 68.9171L351.826 68.4109ZM347.473 94.776C347.473 95.5502 347.287 96.1821 346.945 96.7092C346.599 97.2413 346.056 97.7241 345.257 98.1343C343.629 98.9694 341.06 99.44 337.433 99.44V101.44C341.166 101.44 344.118 100.967 346.17 99.9137C347.21 99.3799 348.048 98.6827 348.622 97.7988C349.199 96.9099 349.473 95.8898 349.473 94.776H347.473ZM337.433 99.44C336.8 99.44 336.408 99.2841 336.153 99.0718C335.896 98.8575 335.663 98.489 335.534 97.8439L333.573 98.2361C333.764 99.191 334.17 100.022 334.873 100.608C335.578 101.196 336.466 101.44 337.433 101.44V99.44ZM335.542 97.8879C335.298 96.3046 335.169 93.7137 335.169 90.072H333.169C333.169 93.7263 333.296 96.4474 333.565 98.1921L335.542 97.8879ZM335.169 90.072C335.169 86.4949 336.291 79.9797 338.597 70.4349L336.653 69.9651C334.351 79.4923 333.169 86.2251 333.169 90.072H335.169ZM337.479 69.2107C333.58 69.786 330.794 70.064 329.081 70.064V72.064C330.952 72.064 333.862 71.766 337.771 71.1893L337.479 69.2107ZM329.081 70.064C328.934 70.064 328.839 70.0495 328.784 70.0353C328.73 70.0215 328.73 70.0124 328.755 70.0314C328.785 70.0545 328.813 70.0902 328.829 70.1264C328.842 70.1566 328.833 70.157 328.833 70.104H326.833C326.833 70.6586 327.027 71.2254 327.536 71.6166C327.994 71.9696 328.565 72.064 329.081 72.064V70.064ZM328.833 70.104C328.833 69.1604 329.55 67.8182 331.564 66.0566L330.247 64.5514C328.164 66.3738 326.833 68.2316 326.833 70.104H328.833ZM331.552 66.0665C333.51 64.4057 336.426 63.0168 340.382 61.9495L339.861 60.0185C335.752 61.1272 332.525 62.6183 330.258 64.5415L331.552 66.0665ZM341.082 61.2617C343.442 53.0958 345.795 46.4248 348.137 41.2353L346.314 40.4127C343.919 45.7192 341.536 52.4881 339.161 60.7063L341.082 61.2617ZM347.207 39.8242C340.209 39.9538 334.86 41.3116 331.344 44.0691L332.578 45.6429C335.59 43.2804 340.417 41.9502 347.244 41.8238L347.207 39.8242ZM331.361 44.056C330.314 44.8418 329.442 45.5769 328.758 46.2609L330.172 47.6751C330.768 47.0791 331.561 46.4062 332.561 45.656L331.361 44.056ZM328.796 46.2247C328.224 46.74 327.881 46.832 327.737 46.832V48.832C328.617 48.832 329.427 48.348 330.134 47.7113L328.796 46.2247ZM327.737 46.832C327.819 46.832 327.817 46.8714 327.716 46.7847C327.608 46.6923 327.45 46.5075 327.257 46.1761L325.529 47.1839C325.784 47.6205 326.074 48.0117 326.414 48.3033C326.761 48.6006 327.208 48.832 327.737 48.832V46.832ZM327.257 46.1761C326.929 45.6139 326.721 44.7842 326.721 43.608H324.721C324.721 44.9918 324.961 46.2101 325.529 47.1839L327.257 46.1761ZM326.721 43.608C326.721 39.6602 330.012 36.321 337.824 33.9074L337.234 31.9966C329.302 34.447 324.721 38.2118 324.721 43.608H326.721ZM337.822 33.9082C343.981 32.0229 351.177 31.0394 359.425 30.976L359.41 28.976C351.018 29.0406 343.622 30.0411 337.237 31.9958L337.822 33.9082ZM359.417 30.976H359.609V28.976H359.417V30.976ZM359.609 30.976C359.74 30.976 360.133 31.079 360.879 31.576L361.988 29.9119C361.198 29.385 360.375 28.976 359.609 28.976V30.976ZM360.909 31.5957C361.388 31.8904 361.681 32.3623 361.681 33.24H363.681C363.681 31.8137 363.142 30.6216 361.957 29.8923L360.909 31.5957ZM361.681 33.24C361.681 34.2666 361.481 35.4777 361.053 36.8848L362.966 37.4672C363.434 35.9303 363.681 34.5174 363.681 33.24H361.681ZM361.044 36.9129C360.686 38.226 360.207 39.1002 359.67 39.6369L361.084 41.0511C361.956 40.1798 362.564 38.942 362.974 37.4391L361.044 36.9129ZM359.385 40.2174C359.014 43.1288 357.441 49.2554 354.619 58.6812L356.535 59.2547C359.346 49.8646 360.973 43.5752 361.369 40.4706L359.385 40.2174ZM449.448 92.856L450.155 93.5631L450.16 93.5578L449.448 92.856ZM433.992 99.288V100.288L434.003 100.288L433.992 99.288ZM426.312 97.752L425.924 98.6736L425.924 98.6736L426.312 97.752ZM419.4 94.296L419.907 93.4341L419.333 93.0963L418.8 93.496L419.4 94.296ZM419.016 94.584L418.416 93.784L418.346 93.8365L418.286 93.9004L419.016 94.584ZM395.304 97.656L394.574 98.3392L394.574 98.3392L395.304 97.656ZM396.072 82.488L396.632 83.3166L396.637 83.3133L396.072 82.488ZM416.232 81.336L415.981 82.304L416.718 82.4951L417.098 81.8353L416.232 81.336ZM422.664 68.376L423.581 68.7743L424.258 67.2149L422.566 67.3808L422.664 68.376ZM413.256 69.528L413.383 70.5199L413.393 70.5186L413.403 70.5171L413.256 69.528ZM410.76 62.712L411.19 63.6149L411.202 63.6093L410.76 62.712ZM426.216 58.392L426.357 59.3819L426.977 59.2934L427.168 58.6974L426.216 58.392ZM429 48.696L428.035 48.4346L428.032 48.444L428.03 48.4535L429 48.696ZM431.592 39.768L432.547 40.0651L432.838 39.1292L431.908 38.8193L431.592 39.768ZM410.472 40.632L410.167 39.6796L410.163 39.6808L410.472 40.632ZM402.024 43.032V44.032H402.06L402.095 44.0295L402.024 43.032ZM406.824 33.528L406.357 32.644L406.349 32.6478L406.342 32.6518L406.824 33.528ZM425.256 29.016V28.016L425.246 28.016L425.256 29.016ZM441.576 58.2L440.658 57.8038L440.055 59.2H441.576V58.2ZM448.776 62.136L449.725 62.4522L449.725 62.4522L448.776 62.136ZM447.912 65.112L446.942 64.8695L446.94 64.8764L447.912 65.112ZM437.064 67.8L437.15 66.8037L436.481 66.746L436.175 67.343L437.064 67.8ZM426.504 85.656L425.685 85.0818L425.028 86.0186L426.045 86.5442L426.504 85.656ZM432.072 88.152L431.717 89.087L431.717 89.087L432.072 88.152ZM443.496 87.192L442.853 86.4263L442.845 86.4328L442.837 86.4394L443.496 87.192ZM447.912 82.776L447.161 82.1154L447.154 82.124L447.146 82.1328L447.912 82.776ZM451.656 78.36L450.879 77.7308L450.879 77.7308L451.656 78.36ZM410.856 89.208L411.589 89.8878L412.496 88.9099L411.303 88.3136L410.856 89.208ZM402.888 88.344L403.425 89.1877L403.451 89.171L403.476 89.1527L402.888 88.344ZM402.888 92.568L402.351 93.4117L402.38 93.4298L402.409 93.4459L402.888 92.568ZM454.344 77.344C454.369 77.344 454.376 77.3473 454.373 77.3464C454.37 77.3452 454.368 77.3436 454.371 77.3459C454.379 77.3517 454.437 77.3996 454.509 77.5636C454.664 77.9148 454.784 78.5626 454.784 79.608H456.784C456.784 78.4774 456.664 77.4932 456.339 76.7564C456.171 76.3764 455.929 76.0163 455.577 75.7501C455.212 75.4743 454.787 75.344 454.344 75.344V77.344ZM454.784 79.608C454.784 83.8128 452.837 87.9906 448.736 92.1542L450.16 93.5578C454.507 89.1454 456.784 84.4912 456.784 79.608H454.784ZM448.741 92.1489C444.706 96.1843 439.805 98.2268 433.981 98.2881L434.003 100.288C440.339 100.221 445.742 97.9757 450.155 93.5631L448.741 92.1489ZM433.992 98.288C431.435 98.288 429.007 97.8017 426.7 96.8304L425.924 98.6736C428.481 99.7503 431.173 100.288 433.992 100.288V98.288ZM426.7 96.8304C424.307 95.8228 422.043 94.6906 419.907 93.4341L418.893 95.1579C421.109 96.4614 423.453 97.6332 425.924 98.6736L426.7 96.8304ZM418.8 93.496L418.416 93.784L419.616 95.384L420 95.096L418.8 93.496ZM418.286 93.9004C414.724 97.7045 410.009 99.632 404.04 99.632V101.632C410.487 101.632 415.756 99.5275 419.746 95.2676L418.286 93.9004ZM404.04 99.632C400.22 99.632 397.628 98.6768 396.034 96.9728L394.574 98.3392C396.692 100.603 399.924 101.632 404.04 101.632V99.632ZM396.034 96.9728C394.385 95.2102 393.52 92.8484 393.52 89.784H391.52C391.52 93.2476 392.511 96.1338 394.574 98.3392L396.034 96.9728ZM393.52 89.784C393.52 86.7972 394.582 84.7018 396.632 83.3166L395.512 81.6594C392.826 83.4742 391.52 86.2428 391.52 89.784H393.52ZM396.637 83.3133C398.861 81.7913 401.753 80.992 405.384 80.992V78.992C401.463 78.992 398.147 79.8567 395.507 81.6627L396.637 83.3133ZM405.384 80.992C409.08 80.992 412.612 81.4304 415.981 82.304L416.483 80.368C412.94 79.4496 409.24 78.992 405.384 78.992V80.992ZM417.098 81.8353C419.297 78.0205 421.457 73.6658 423.581 68.7743L421.747 67.9777C419.647 72.8142 417.519 77.0995 415.366 80.8367L417.098 81.8353ZM422.566 67.3808C419.287 67.7023 416.134 68.0883 413.109 68.5389L413.403 70.5171C416.394 70.0717 419.513 69.6897 422.762 69.3712L422.566 67.3808ZM413.129 68.536C410.141 68.9176 407.756 69.104 405.96 69.104V71.104C407.876 71.104 410.355 70.9064 413.383 70.5199L413.129 68.536ZM405.96 69.104C405.813 69.104 405.718 69.0895 405.662 69.0753C405.608 69.0615 405.609 69.0524 405.634 69.0714C405.664 69.0944 405.692 69.1302 405.708 69.1664C405.721 69.1966 405.712 69.197 405.712 69.144H403.712C403.712 69.6986 403.906 70.2654 404.414 70.6566C404.873 71.0096 405.444 71.104 405.96 71.104V69.104ZM405.712 69.144C405.712 67.4161 407.194 65.5176 411.19 63.6149L410.33 61.8091C406.262 63.7463 403.712 66.1359 403.712 69.144H405.712ZM411.202 63.6093C415.109 61.6865 420.151 60.2687 426.357 59.3819L426.075 57.402C419.738 58.3073 414.475 59.7695 410.318 61.8147L411.202 63.6093ZM427.168 58.6974C428.262 55.2872 429.196 52.0341 429.97 48.9385L428.03 48.4535C427.268 51.5019 426.346 54.7128 425.264 58.0866L427.168 58.6974ZM429.965 48.9574C430.794 45.8967 431.655 42.9326 432.547 40.0651L430.637 39.4709C429.737 42.3634 428.87 45.3513 428.035 48.4346L429.965 48.9574ZM431.908 38.8193C428.954 37.8344 426.221 37.328 423.72 37.328V39.328C425.955 39.328 428.47 39.7816 431.276 40.7167L431.908 38.8193ZM423.72 37.328C419.562 37.328 415.042 38.1196 410.167 39.6796L410.777 41.5844C415.502 40.0724 419.814 39.328 423.72 39.328V37.328ZM410.163 39.6808C407.8 40.4472 405.926 41.0269 404.535 41.4221C403.104 41.8286 402.279 42.0113 401.953 42.0345L402.095 44.0295C402.665 43.9887 403.696 43.7394 405.081 43.3459C406.506 42.9411 408.408 42.3528 410.781 41.5832L410.163 39.6808ZM402.024 42.032C401.157 42.032 400.687 41.8677 400.455 41.6976C400.281 41.5699 400.144 41.3715 400.144 40.92H398.144C398.144 41.8765 398.487 42.7341 399.273 43.3104C400.001 43.8443 400.971 44.032 402.024 44.032V42.032ZM400.144 40.92C400.144 40.272 400.547 39.3738 401.757 38.2085C402.947 37.0639 404.78 35.7933 407.306 34.4042L406.342 32.6518C403.748 34.0787 401.741 35.4481 400.371 36.7675C399.021 38.0662 398.144 39.456 398.144 40.92H400.144ZM407.291 34.412C412.709 31.5477 418.694 30.0785 425.266 30.016L425.246 28.016C418.378 28.0815 412.075 29.6203 406.357 32.644L407.291 34.412ZM425.256 30.016C430.589 30.016 434.946 30.4215 438.349 31.2139C441.765 32.0093 444.127 33.1736 445.573 34.6191L446.987 33.2049C445.169 31.3864 442.395 30.1027 438.803 29.2661C435.198 28.4265 430.675 28.016 425.256 28.016V30.016ZM445.573 34.6191C446.29 35.3364 446.624 36.1414 446.624 37.08H448.624C448.624 35.5866 448.062 34.2796 446.987 33.2049L445.573 34.6191ZM446.624 37.08C446.624 41.5961 444.684 48.4739 440.658 57.8038L442.494 58.5962C446.532 49.2381 448.624 42.0359 448.624 37.08H446.624ZM441.576 59.2H447.144V57.2H441.576V59.2ZM447.144 59.2C447.716 59.2 447.959 59.3321 448.055 59.4199C448.134 59.4914 448.256 59.66 448.256 60.12H450.256C450.256 59.3 450.026 58.5086 449.401 57.9401C448.793 57.3879 447.98 57.2 447.144 57.2V59.2ZM448.256 60.12C448.256 60.3203 448.151 60.8475 447.827 61.8198L449.725 62.4522C450.041 61.5045 450.256 60.6877 450.256 60.12H448.256ZM447.827 61.8198C447.499 62.8051 447.204 63.8217 446.942 64.8695L448.882 65.3545C449.132 64.3543 449.413 63.3869 449.725 62.4522L447.827 61.8198ZM446.94 64.8764C446.71 65.8244 446.377 66.4191 446.016 66.7704C445.677 67.0989 445.248 67.28 444.648 67.28V69.28C445.712 69.28 446.659 68.9331 447.408 68.2056C448.135 67.5009 448.602 66.5116 448.884 65.3476L446.94 64.8764ZM444.648 67.28C443.353 67.28 440.867 67.1241 437.15 66.8037L436.978 68.7963C440.685 69.1159 443.255 69.28 444.648 69.28V67.28ZM436.175 67.343C432.606 74.2898 429.109 80.2005 425.685 85.0818L427.323 86.2302C430.811 81.2555 434.354 75.2622 437.953 68.257L436.175 67.343ZM426.045 86.5442C427.933 87.5209 429.824 88.3687 431.717 89.087L432.427 87.217C430.608 86.5273 428.787 85.7111 426.963 84.7678L426.045 86.5442ZM431.717 89.087C433.694 89.8367 435.799 90.208 438.024 90.208V88.208C436.025 88.208 434.162 87.8753 432.427 87.217L431.717 89.087ZM438.024 90.208C440.369 90.208 442.429 89.4541 444.155 87.9446L442.837 86.4394C441.491 87.6179 439.903 88.208 438.024 88.208V90.208ZM444.139 87.9577C445.783 86.5765 447.296 85.0635 448.678 83.4192L447.146 82.1328C445.84 83.6885 444.409 85.1195 442.853 86.4263L444.139 87.9577ZM448.663 83.4366C450.078 81.8286 451.335 80.346 452.433 78.9892L450.879 77.7308C449.801 79.062 448.562 80.5234 447.161 82.1154L448.663 83.4366ZM452.433 78.9892C452.95 78.3506 453.387 77.9155 453.744 77.648C454.114 77.3706 454.303 77.344 454.344 77.344V75.344C453.681 75.344 453.07 75.6534 452.544 76.048C452.005 76.4525 451.45 77.0254 450.879 77.7308L452.433 78.9892ZM411.303 88.3136C409.061 87.1925 407.044 86.576 405.288 86.576V88.576C406.604 88.576 408.299 89.0475 410.409 90.1024L411.303 88.3136ZM405.288 86.576C404.187 86.576 403.18 86.8951 402.3 87.5353L403.476 89.1527C404.004 88.7689 404.597 88.576 405.288 88.576V86.576ZM402.351 87.5003C401.311 88.1621 400.832 89.2145 400.832 90.456H402.832C402.832 89.7775 403.057 89.4219 403.425 89.1877L402.351 87.5003ZM400.832 90.456C400.832 91.6975 401.311 92.7499 402.351 93.4117L403.425 91.7243C403.057 91.4901 402.832 91.1345 402.832 90.456H400.832ZM402.409 93.4459C403.253 93.9063 404.153 94.144 405.096 94.144V92.144C404.503 92.144 403.931 91.9977 403.367 91.6901L402.409 93.4459ZM405.096 94.144C406.094 94.144 407.128 93.6883 408.156 92.9856C409.201 92.2714 410.347 91.2286 411.589 89.8878L410.123 88.5282C408.933 89.8114 407.903 90.7366 407.028 91.3344C406.136 91.9437 405.506 92.144 405.096 92.144V94.144Z" fill="black" mask="url(#path-1-outside-1_1_7)"/>
</svg>
